<?xml version="1.0" encoding="UTF-8" standalone="no"?>
<svg width="180px" height="264px" viewBox="0 0 180 264" version="1.1" xmlns="http://www.w3.org/2000/svg" xmlns:xlink="http://www.w3.org/1999/xlink">
    <!-- Generator: Sketch 3.8.3 (29802) - http://www.bohemiancoding.com/sketch -->
    <title>Group 2 Copy 2</title>
    <desc>Created with Sketch.</desc>
    <defs>
        <polygon id="path-1" points="0 175.699241 61.2114239 175.699241 61.2114239 0 0 0"></polygon>
    </defs>
    <g id="Welcome" stroke="none" stroke-width="1" fill="none" fill-rule="evenodd">
        <g id="premios" transform="translate(-1780.000000, -422.000000)">
            <g id="Group-2-Copy-2" transform="translate(1780.000000, 422.000000)">
                <g id="Group-3-Copy">
                    <path d="M0,0 L180,0 L180,263.7 L0,263.7 L0,0 Z M7,7 L173,7 L173,257 L7,257 L7,7 Z" id="Combined-Shape-Copy" fill="#2E3136"></path>
                    <path d="M49.48,221 L45.808,221 L45.808,212.612 L49.072,212.612 C49.6400028,212.612 50.1299979,212.679999 50.542,212.816 C50.9540021,212.952001 51.259999,213.135999 51.46,213.368 C51.8440019,213.800002 52.036,214.287997 52.036,214.832 C52.036,215.488003 51.8280021,215.975998 51.412,216.296 C51.2599992,216.408001 51.1560003,216.478 51.1,216.506 C51.0439997,216.534 50.9440007,216.58 50.8,216.644 C51.3200026,216.756001 51.7339985,216.989998 52.042,217.346 C52.3500015,217.702002 52.504,218.143997 52.504,218.672 C52.504,219.256003 52.304002,219.771998 51.904,220.22 C51.4319976,220.740003 50.6240057,221 49.48,221 L49.48,221 Z M47.224,216.092 L49.024,216.092 C50.0480051,216.092 50.56,215.744003 50.56,215.048 C50.56,214.647998 50.4360012,214.360001 50.188,214.184 C49.9399988,214.007999 49.5560026,213.92 49.036,213.92 L47.224,213.92 L47.224,216.092 Z M47.224,219.692 L49.444,219.692 C49.9640026,219.692 50.3619986,219.610001 50.638,219.446 C50.9140014,219.281999 51.052,218.972002 51.052,218.516 C51.052,217.771996 50.456006,217.4 49.264,217.4 L47.224,217.4 L47.224,219.692 Z M60.172,212.612 L60.172,213.944 L55.696,213.944 L55.696,216.164 L59.716,216.164 L59.716,217.424 L55.696,217.424 L55.696,219.668 L60.316,219.668 L60.316,221 L54.28,221 L54.28,212.612 L60.172,212.612 Z M63.652,213.968 C63.3879987,214.136001 63.256,214.389998 63.256,214.73 C63.256,215.070002 63.3879987,215.329999 63.652,215.51 C63.9160013,215.690001 64.4779957,215.883999 65.338,216.092 C66.1980043,216.300001 66.8459978,216.591998 67.282,216.968 C67.7180022,217.344002 67.936,217.897996 67.936,218.63 C67.936,219.362004 67.6600028,219.955998 67.108,220.412 C66.5559972,220.868002 65.8320045,221.096 64.936,221.096 C63.6239934,221.096 62.4600051,220.644005 61.444,219.74 L62.332,218.672 C63.1800042,219.408004 64.0599954,219.776 64.972,219.776 C65.4280023,219.776 65.7899987,219.678001 66.058,219.482 C66.3260013,219.285999 66.46,219.026002 66.46,218.702 C66.46,218.377998 66.3340013,218.126001 66.082,217.946 C65.8299987,217.765999 65.3960031,217.602001 64.78,217.454 C64.1639969,217.305999 63.6960016,217.170001 63.376,217.046 C63.0559984,216.921999 62.7720012,216.760001 62.524,216.56 C62.0279975,216.183998 61.78,215.608004 61.78,214.832 C61.78,214.055996 62.0619972,213.458002 62.626,213.038 C63.1900028,212.617998 63.8879958,212.408 64.72,212.408 C65.2560027,212.408 65.7879974,212.495999 66.316,212.672 C66.8440026,212.848001 67.2999981,213.095998 67.684,213.416 L66.928,214.484 C66.6799988,214.259999 66.3440021,214.076001 65.92,213.932 C65.4959979,213.787999 65.0780021,213.716 64.666,213.716 C64.2539979,213.716 63.9160013,213.799999 63.652,213.968 L63.652,213.968 Z M72.856,213.908 L72.856,221 L71.44,221 L71.44,213.908 L68.896,213.908 L68.896,212.612 L75.4,212.612 L75.4,213.908 L72.856,213.908 Z M82.84,218.648 L84.712,212.612 L85.984,212.612 L87.856,218.648 L89.968,212.612 L91.492,212.612 L88.564,221 L87.16,221 L85.396,215.252 L85.3,215.252 L83.536,221 L82.132,221 L79.204,212.612 L80.728,212.612 L82.84,218.648 Z M98.692,212.612 L98.692,213.944 L94.216,213.944 L94.216,216.164 L98.236,216.164 L98.236,217.424 L94.216,217.424 L94.216,219.668 L98.836,219.668 L98.836,221 L92.8,221 L92.8,212.612 L98.692,212.612 Z M104.32,221 L100.648,221 L100.648,212.612 L103.912,212.612 C104.480003,212.612 104.969998,212.679999 105.382,212.816 C105.794002,212.952001 106.099999,213.135999 106.3,213.368 C106.684002,213.800002 106.876,214.287997 106.876,214.832 C106.876,215.488003 106.668002,215.975998 106.252,216.296 C106.099999,216.408001 105.996,216.478 105.94,216.506 C105.884,216.534 105.784001,216.58 105.64,216.644 C106.160003,216.756001 106.573998,216.989998 106.882,217.346 C107.190002,217.702002 107.344,218.143997 107.344,218.672 C107.344,219.256003 107.144002,219.771998 106.744,220.22 C106.271998,220.740003 105.464006,221 104.32,221 L104.32,221 Z M102.064,216.092 L103.864,216.092 C104.888005,216.092 105.4,215.744003 105.4,215.048 C105.4,214.647998 105.276001,214.360001 105.028,214.184 C104.779999,214.007999 104.396003,213.92 103.876,213.92 L102.064,213.92 L102.064,216.092 Z M102.064,219.692 L104.284,219.692 C104.804003,219.692 105.201999,219.610001 105.478,219.446 C105.754001,219.281999 105.892,218.972002 105.892,218.516 C105.892,217.771996 105.296006,217.4 104.104,217.4 L102.064,217.4 L102.064,219.692 Z M110.644,213.968 C110.379999,214.136001 110.248,214.389998 110.248,214.73 C110.248,215.070002 110.379999,215.329999 110.644,215.51 C110.908001,215.690001 111.469996,215.883999 112.33,216.092 C113.190004,216.300001 113.837998,216.591998 114.274,216.968 C114.710002,217.344002 114.928,217.897996 114.928,218.63 C114.928,219.362004 114.652003,219.955998 114.1,220.412 C113.547997,220.868002 112.824004,221.096 111.928,221.096 C110.615993,221.096 109.452005,220.644005 108.436,219.74 L109.324,218.672 C110.172004,219.408004 111.051995,219.776 111.964,219.776 C112.420002,219.776 112.781999,219.678001 113.05,219.482 C113.318001,219.285999 113.452,219.026002 113.452,218.702 C113.452,218.377998 113.326001,218.126001 113.074,217.946 C112.821999,217.765999 112.388003,217.602001 111.772,217.454 C111.155997,217.305999 110.688002,217.170001 110.368,217.046 C110.047998,216.921999 109.764001,216.760001 109.516,216.56 C109.019998,216.183998 108.772,215.608004 108.772,214.832 C108.772,214.055996 109.053997,213.458002 109.618,213.038 C110.182003,212.617998 110.879996,212.408 111.712,212.408 C112.248003,212.408 112.779997,212.495999 113.308,212.672 C113.836003,212.848001 114.291998,213.095998 114.676,213.416 L113.92,214.484 C113.671999,214.259999 113.336002,214.076001 112.912,213.932 C112.487998,213.787999 112.070002,213.716 111.658,213.716 C111.245998,213.716 110.908001,213.799999 110.644,213.968 L110.644,213.968 Z M116.68,212.612 L118.096,212.612 L118.096,221 L116.68,221 L116.68,212.612 Z M123.592,213.908 L123.592,221 L122.176,221 L122.176,213.908 L119.632,213.908 L119.632,212.612 L126.136,212.612 L126.136,213.908 L123.592,213.908 Z M133.564,212.612 L133.564,213.944 L129.088,213.944 L129.088,216.164 L133.108,216.164 L133.108,217.424 L129.088,217.424 L129.088,219.668 L133.708,219.668 L133.708,221 L127.672,221 L127.672,212.612 L133.564,212.612 Z" id="BEST-WEBSITE" fill="#5D6572"></path>
                </g>
                <g id="Page-1" transform="translate(59.000000, 0.000000)">
                    <path d="M4.3364281,154.757246 L2.87354754,154.757246 L2.87354754,152.090511 L4.3364281,152.090511 C5.40545621,152.090511 5.82181452,152.573954 5.82181452,153.373752 C5.82181452,154.178005 5.40545621,154.757246 4.3364281,154.757246 L4.3364281,154.757246 Z M4.4602103,150.640182 L1.09333443,150.640182 L1.09333443,159.20403 L2.87354754,159.20403 L2.87354754,156.114005 L4.39044215,156.114005 C4.82030398,156.114005 5.38295035,156.071676 5.75654754,155.935777 C7.05063419,155.479068 7.545763,154.610208 7.545763,153.373752 C7.545763,152.282106 7.02812834,151.210511 5.86907681,150.81841 C5.51798548,150.698106 4.89907447,150.640182 4.4602103,150.640182 L4.4602103,150.640182 Z" id="Fill-1" fill="#AFC9D9"></path>
                    <mask id="mask-2" fill="white">
                        <use xlink:href="#path-1"></use>
                    </mask>
                    <g id="Clip-4"></g>
                    <polygon id="Fill-3" fill="#AFC9D9" mask="url(#mask-2)" points="9.45245902 159.204922 11.1764075 159.204922 11.1764075 150.641073 9.45245902 150.641073"></polygon>
                    <path d="M16.8595859,156.162572 L16.9158506,156.162572 L16.9158506,156.975737 C16.9158506,157.554977 16.4544806,158.125306 15.464223,158.125306 C14.8655672,158.125306 14.4829677,157.869104 14.4829677,157.376749 C14.4829677,156.942319 14.9240824,156.719534 15.1828998,156.628192 C15.45297,156.541306 16.1168927,156.418775 16.3329489,156.363078 C16.5782628,156.294015 16.7695625,156.240547 16.8595859,156.162572 M16.386963,155.322673 C16.1731574,155.358319 15.5317405,155.414015 14.9916,155.500901 C14.0666094,155.659078 12.8400403,156.093509 12.8400403,157.499281 C12.8400403,158.838218 14.0013424,159.381813 15.0253588,159.381813 C16.0381222,159.381813 16.7695625,158.960749 16.8595859,158.568648 L16.9158506,158.568648 C16.9158506,158.782522 16.9856187,159.047635 17.0868951,159.203585 L18.7073166,159.203585 L18.7073166,159.161256 C18.6285461,159.096648 18.4957616,158.925104 18.4957616,158.626572 L18.4957616,154.914977 C18.4957616,153.551534 17.3997265,152.874268 15.8693283,152.874268 C14.437956,152.874268 13.346422,153.495838 13.2113869,154.921661 L14.6742674,155.001863 C14.6630145,154.378066 15.2054056,154.099585 15.7905578,154.099585 C16.5670098,154.099585 16.848333,154.444901 16.848333,154.892699 C16.848333,155.180091 16.6930426,155.280344 16.386963,155.322673" id="Fill-5" fill="#AFC9D9" mask="url(#mask-2)"></path>
                    <path d="M21.2223459,158.860496 C21.5824396,159.161256 22.0010485,159.203585 22.4736714,159.203585 L23.6012148,159.203585 L23.6012148,157.947078 L23.0700766,157.947078 C22.8787768,157.947078 22.687477,157.898066 22.5636948,157.791129 C22.4399126,157.677509 22.3723951,157.477003 22.3723951,157.234167 L22.3723951,154.208749 L23.5539525,154.208749 L23.5539525,153.039129 L22.3723951,153.039129 L22.3723951,151.118724 L20.6934583,151.118724 L20.6934583,153.039129 L19.9170063,153.039129 L19.9170063,154.208749 L20.6934583,154.208749 L20.6934583,157.54161 C20.6934583,158.167635 20.8397464,158.53523 21.2223459,158.860496" id="Fill-6" fill="#AFC9D9" mask="url(#mask-2)"></path>
                    <path d="M28.7082433,156.162572 L28.764508,156.162572 L28.764508,156.975737 C28.764508,157.554977 28.3031379,158.125306 27.3128803,158.125306 C26.7142246,158.125306 26.3316251,157.869104 26.3316251,157.376749 C26.3316251,156.942319 26.7727398,156.719534 27.0315571,156.628192 C27.3016274,156.541306 27.9655501,156.418775 28.1793557,156.363078 C28.4269201,156.294015 28.6182199,156.240547 28.7082433,156.162572 M28.2356204,155.322673 C28.0218148,155.358319 27.3803979,155.414015 26.8402574,155.500901 C25.9152667,155.659078 24.6886977,156.093509 24.6886977,157.499281 C24.6886977,158.838218 25.8477492,159.381813 26.8717656,159.381813 C27.8867796,159.381813 28.6182199,158.960749 28.7082433,158.568648 L28.764508,158.568648 C28.764508,158.782522 28.8342761,159.047635 28.9333019,159.203585 L30.555974,159.203585 L30.555974,159.161256 C30.4772035,159.096648 30.3399178,158.925104 30.3399178,158.626572 L30.3399178,154.914977 C30.3399178,153.551534 29.2483838,152.874268 27.7157351,152.874268 C26.2888639,152.874268 25.1928288,153.495838 25.0600443,154.921661 L26.5229248,155.001863 C26.5116719,154.378066 27.054063,154.099585 27.6369646,154.099585 C28.4156672,154.099585 28.6969904,154.444901 28.6969904,154.892699 C28.6969904,155.180091 28.5394494,155.280344 28.2356204,155.322673" id="Fill-7" fill="#AFC9D9" mask="url(#mask-2)"></path>
                    <path d="M20.8991618,138.814096 L21.0139417,138.814096 L21.0139417,140.476071 C21.0139417,141.659058 20.0709464,142.817539 18.04767,142.817539 C16.8278527,142.817539 16.0468995,142.291767 16.0468995,141.293691 C16.0468995,140.407008 16.9448831,139.950299 17.4737707,139.767615 C18.0274148,139.589387 19.3800166,139.335413 19.8188808,139.22402 C20.3230119,139.088122 20.7146138,138.974501 20.8991618,138.814096 M19.9314101,137.103109 C19.4947965,137.1744 18.1849557,137.285792 17.0844194,137.468476 C15.1961782,137.791514 12.6935272,138.67597 12.6935272,141.54321 C12.6935272,144.274552 15.0588925,145.388476 17.1496864,145.388476 C19.2202251,145.388476 20.7146138,144.524071 20.8991618,143.726501 L21.0139417,143.726501 C21.0139417,144.156476 21.1512274,144.706754 21.3582813,145.023109 L24.6688925,145.023109 L24.6688925,144.931767 C24.5091009,144.798096 24.2322789,144.457235 24.2322789,143.840122 L24.2322789,136.26321 C24.2322789,133.487311 22.0019487,132.099362 18.8781361,132.099362 C15.9546255,132.099362 13.7242953,133.375919 13.4497239,136.285489 L16.440752,136.448122 C16.4159956,135.171565 17.5187824,134.605691 18.7138433,134.605691 C20.3005061,134.605691 20.8744054,135.307463 20.8744054,136.220881 C20.8744054,136.809033 20.5548222,137.011767 19.9314101,137.103109" id="Fill-9" fill="#AFC9D9" mask="url(#mask-2)"></path>
                    <path d="M26.692619,132.439554 L26.692619,140.201377 C26.692619,142.063858 27.0819703,143.451808 28.0249656,144.318441 C28.7834129,145.022441 29.7039023,145.387808 31.0137431,145.387808 C31.6799164,145.387808 32.3483403,145.318744 32.8997337,145.066997 C33.6109187,144.748415 34.1870686,144.273884 34.5089023,143.679048 L34.5539141,143.679048 L34.6686939,145.022441 L38.0265674,145.022441 L38.0265674,132.439554 L34.5089023,132.439554 L34.5089023,139.087453 C34.5089023,139.83601 34.3468602,140.771706 34.1173005,141.223959 C33.8179726,141.838846 33.1517993,142.360162 32.1862981,142.360162 C31.4728625,142.360162 30.9214691,142.135149 30.6221412,141.747504 C30.2327899,141.272972 30.2102841,140.546694 30.2102841,139.907301 L30.2102841,132.439554 L26.692619,132.439554 Z" id="Fill-10" fill="#AFC9D9" mask="url(#mask-2)"></path>
                    <polygon id="Fill-11" fill="#AFC9D9" mask="url(#mask-2)" points="12.2771689 141.886076 3.6821829 141.886076 3.6821829 127.547646 0.000225058548 127.547646 0.000225058548 145.022886 12.2771689 145.022886"></polygon>
                    <path d="M45.635797,142.952324 C44.2561881,142.952324 43.5202466,142.564678 43.1556518,141.885185 C42.991359,141.591109 42.899085,141.225742 42.8540733,140.86483 L39.8675464,140.86483 C39.8675464,141.747058 40.0025815,142.5424 40.4617009,143.226349 C41.3596845,144.57197 43.1061389,145.38959 45.4737548,145.38959 C49.0386822,145.38959 51.0372021,143.705337 51.0372021,141.043058 C51.0372021,138.449843 48.692092,137.560932 46.4865183,137.264628 C45.4287431,137.130957 44.5780218,137.012881 43.8645862,136.743311 C43.4054667,136.560628 43.175907,136.264324 43.175907,135.743008 C43.175907,134.854096 44.1639141,134.4464 45.2216892,134.4464 C46.1421787,134.4464 47.1301857,134.693691 47.4520194,135.468982 C47.5667993,135.720729 47.5893052,136.037084 47.5893052,136.313337 L50.6005885,136.313337 C50.6005885,135.560324 50.3012607,134.671413 50.0266892,134.263716 C49.4055276,133.305742 47.8188649,132.100476 45.2441951,132.100476 C42.095626,132.100476 40.1173614,133.827058 40.1173614,136.108375 C40.1173614,138.674856 42.0483637,139.51921 44.5577665,139.906856 C46.1421787,140.154147 47.8661272,140.405894 47.8661272,141.450754 C47.8661272,142.500071 46.623804,142.952324 45.635797,142.952324" id="Fill-12" fill="#AFC9D9" mask="url(#mask-2)"></path>
                    <path d="M0,70.6951899 C12.8035808,70.6951899 20.5185878,60.6052658 30.6147143,50.5042025 C40.7603536,40.3496709 49.2360585,30.3065316 61.2114239,30.3065316 L61.2114239,-0.00111392405 L0,-0.00111392405 L0,70.6951899 Z" id="Fill-13" fill="#AFC9D9" mask="url(#mask-2)"></path>
                    <polygon id="Fill-14" fill="#AFC9D9" mask="url(#mask-2)" points="0 175.699909 61.2114239 175.699909 61.2114239 169.016365 0 169.016365"></polygon>
                    <path d="M32.1269826,153.484051 C32.505081,153.37043 32.7683995,153.178835 32.9146875,152.913722 C32.9889569,152.753316 33.0227156,152.592911 33.0114627,152.425823 L32.0999756,152.425823 L32.0999756,151 L33.7136454,151 L33.7136454,152.142886 C33.7136454,152.693165 33.5786102,153.123139 33.2972871,153.439494 C33.0182145,153.75362 32.6288632,153.958582 32.1269826,154.05438 L32.1269826,153.484051 Z" id="Fill-15" fill="#AFC9D9" mask="url(#mask-2)"></path>
                    <path d="M34.7170166,153.491175 L34.7170166,152.381566 C35.2378501,152.360542 35.6040983,152.327838 35.8086266,152.281117 C36.1439577,152.208701 36.4126983,152.063867 36.621983,151.848954 C36.7646771,151.697112 36.8716977,151.500887 36.945423,151.255605 C36.9882312,151.106099 37.0072571,150.996306 37.0072571,150.921554 L38.39139,150.921554 L38.39139,159.193399 L36.6957083,159.193399 L36.6957083,153.491175 L34.7170166,153.491175 Z" id="Fill-16" fill="#AFC9D9" mask="url(#mask-2)"></path>
                    <path d="M41.9014751,157.665876 C42.1488116,157.943863 42.4532257,158.08636 42.8313651,158.08636 C43.1976133,158.08636 43.4853797,157.948535 43.6994209,157.679892 C43.9087056,157.406578 44.0157262,157.053839 44.0157262,156.621675 C44.0157262,156.138119 43.8944362,155.769028 43.6566127,155.512066 C43.4164109,155.25744 43.123888,155.128959 42.7742874,155.128959 C42.4912774,155.128959 42.2415627,155.210719 42.0227651,155.378913 C41.6969469,155.626531 41.5352269,156.023654 41.5352269,156.574955 C41.5352269,157.023471 41.6588951,157.383218 41.9014751,157.665876 L41.9014751,157.665876 Z M43.8658974,153.007853 C43.8658974,152.870028 43.811198,152.725195 43.7089338,152.564009 C43.528188,152.309383 43.2618256,152.17623 42.9003339,152.17623 C42.3604745,152.17623 41.9799569,152.472904 41.7540245,153.066253 C41.6279781,153.395632 41.5447398,153.879188 41.4971751,154.516922 C41.7017034,154.276312 41.9395269,154.103446 42.2082675,153.993653 C42.4817645,153.88386 42.7885568,153.827796 43.1381574,153.827796 C43.8849232,153.827796 44.4985079,154.075414 44.9765332,154.572986 C45.4545585,155.070558 45.692382,155.708292 45.692382,156.48385 C45.692382,157.254737 45.4593149,157.934518 44.9908026,158.527867 C44.5222903,159.116544 43.7969285,159.408547 42.8075827,159.408547 C41.7492681,159.408547 40.9620722,158.976383 40.4626428,158.102712 C40.070234,157.42293 39.8752188,156.544587 39.8752188,155.472354 C39.8752188,154.836956 39.9037576,154.325368 39.9560788,153.928245 C40.0535864,153.227439 40.2438452,152.643434 40.5220987,152.171558 C40.7599222,151.776771 41.0738493,151.452064 41.4638798,151.209118 C41.8515322,150.963836 42.3200445,150.844699 42.8575257,150.844699 C43.6423433,150.844699 44.2654409,151.040924 44.7291967,151.433376 C45.1953308,151.825827 45.4545585,152.351431 45.5163926,153.007853 L43.8658974,153.007853 Z" id="Fill-17" fill="#AFC9D9" mask="url(#mask-2)"></path>
                </g>
            </g>
        </g>
    </g>
</svg>