<?xml version="1.0" encoding="UTF-8" standalone="no"?>
<svg width="180px" height="264px" viewBox="0 0 180 264" version="1.1" xmlns="http://www.w3.org/2000/svg" xmlns:xlink="http://www.w3.org/1999/xlink">
    <!-- Generator: Sketch 3.6.1 (26313) - http://www.bohemiancoding.com/sketch -->
    <title>Group 3</title>
    <desc>Created with Sketch.</desc>
    <defs>
        <path id="path-1" d="M0,0.300759494 L60.2241429,0.300759494 L60.2241429,176 L0,176 L0,0.300759494 Z"></path>
    </defs>
    <g id="Welcome" stroke="none" stroke-width="1" fill="none" fill-rule="evenodd">
        <g id="premios" transform="translate(-764.000000, -604.000000)">
            <g id="Group-3" transform="translate(764.000000, 604.000000)">
                <path d="M0,0 L180,0 L180,263.7 L0,263.7 L0,0 Z M7,7 L173,7 L173,257 L7,257 L7,7 Z" id="Combined-Shape-Copy-4" fill="#2E3136"></path>
                <path d="M49.48,221 L45.808,221 L45.808,212.612 L49.072,212.612 C49.6400028,212.612 50.1299979,212.679999 50.542,212.816 C50.9540021,212.952001 51.259999,213.135999 51.46,213.368 C51.8440019,213.800002 52.036,214.287997 52.036,214.832 C52.036,215.488003 51.8280021,215.975998 51.412,216.296 C51.2599992,216.408001 51.1560003,216.478 51.1,216.506 C51.0439997,216.534 50.9440007,216.58 50.8,216.644 C51.3200026,216.756001 51.7339985,216.989998 52.042,217.346 C52.3500015,217.702002 52.504,218.143997 52.504,218.672 C52.504,219.256003 52.304002,219.771998 51.904,220.22 C51.4319976,220.740003 50.6240057,221 49.48,221 L49.48,221 Z M47.224,216.092 L49.024,216.092 C50.0480051,216.092 50.56,215.744003 50.56,215.048 C50.56,214.647998 50.4360012,214.360001 50.188,214.184 C49.9399988,214.007999 49.5560026,213.92 49.036,213.92 L47.224,213.92 L47.224,216.092 Z M47.224,219.692 L49.444,219.692 C49.9640026,219.692 50.3619986,219.610001 50.638,219.446 C50.9140014,219.281999 51.052,218.972002 51.052,218.516 C51.052,217.771996 50.456006,217.4 49.264,217.4 L47.224,217.4 L47.224,219.692 Z M60.172,212.612 L60.172,213.944 L55.696,213.944 L55.696,216.164 L59.716,216.164 L59.716,217.424 L55.696,217.424 L55.696,219.668 L60.316,219.668 L60.316,221 L54.28,221 L54.28,212.612 L60.172,212.612 Z M63.652,213.968 C63.3879987,214.136001 63.256,214.389998 63.256,214.73 C63.256,215.070002 63.3879987,215.329999 63.652,215.51 C63.9160013,215.690001 64.4779957,215.883999 65.338,216.092 C66.1980043,216.300001 66.8459978,216.591998 67.282,216.968 C67.7180022,217.344002 67.936,217.897996 67.936,218.63 C67.936,219.362004 67.6600028,219.955998 67.108,220.412 C66.5559972,220.868002 65.8320045,221.096 64.936,221.096 C63.6239934,221.096 62.4600051,220.644005 61.444,219.74 L62.332,218.672 C63.1800042,219.408004 64.0599954,219.776 64.972,219.776 C65.4280023,219.776 65.7899987,219.678001 66.058,219.482 C66.3260013,219.285999 66.46,219.026002 66.46,218.702 C66.46,218.377998 66.3340013,218.126001 66.082,217.946 C65.8299987,217.765999 65.3960031,217.602001 64.78,217.454 C64.1639969,217.305999 63.6960016,217.170001 63.376,217.046 C63.0559984,216.921999 62.7720012,216.760001 62.524,216.56 C62.0279975,216.183998 61.78,215.608004 61.78,214.832 C61.78,214.055996 62.0619972,213.458002 62.626,213.038 C63.1900028,212.617998 63.8879958,212.408 64.72,212.408 C65.2560027,212.408 65.7879974,212.495999 66.316,212.672 C66.8440026,212.848001 67.2999981,213.095998 67.684,213.416 L66.928,214.484 C66.6799988,214.259999 66.3440021,214.076001 65.92,213.932 C65.4959979,213.787999 65.0780021,213.716 64.666,213.716 C64.2539979,213.716 63.9160013,213.799999 63.652,213.968 L63.652,213.968 Z M72.856,213.908 L72.856,221 L71.44,221 L71.44,213.908 L68.896,213.908 L68.896,212.612 L75.4,212.612 L75.4,213.908 L72.856,213.908 Z M82.84,218.648 L84.712,212.612 L85.984,212.612 L87.856,218.648 L89.968,212.612 L91.492,212.612 L88.564,221 L87.16,221 L85.396,215.252 L85.3,215.252 L83.536,221 L82.132,221 L79.204,212.612 L80.728,212.612 L82.84,218.648 Z M98.692,212.612 L98.692,213.944 L94.216,213.944 L94.216,216.164 L98.236,216.164 L98.236,217.424 L94.216,217.424 L94.216,219.668 L98.836,219.668 L98.836,221 L92.8,221 L92.8,212.612 L98.692,212.612 Z M104.32,221 L100.648,221 L100.648,212.612 L103.912,212.612 C104.480003,212.612 104.969998,212.679999 105.382,212.816 C105.794002,212.952001 106.099999,213.135999 106.3,213.368 C106.684002,213.800002 106.876,214.287997 106.876,214.832 C106.876,215.488003 106.668002,215.975998 106.252,216.296 C106.099999,216.408001 105.996,216.478 105.94,216.506 C105.884,216.534 105.784001,216.58 105.64,216.644 C106.160003,216.756001 106.573998,216.989998 106.882,217.346 C107.190002,217.702002 107.344,218.143997 107.344,218.672 C107.344,219.256003 107.144002,219.771998 106.744,220.22 C106.271998,220.740003 105.464006,221 104.32,221 L104.32,221 Z M102.064,216.092 L103.864,216.092 C104.888005,216.092 105.4,215.744003 105.4,215.048 C105.4,214.647998 105.276001,214.360001 105.028,214.184 C104.779999,214.007999 104.396003,213.92 103.876,213.92 L102.064,213.92 L102.064,216.092 Z M102.064,219.692 L104.284,219.692 C104.804003,219.692 105.201999,219.610001 105.478,219.446 C105.754001,219.281999 105.892,218.972002 105.892,218.516 C105.892,217.771996 105.296006,217.4 104.104,217.4 L102.064,217.4 L102.064,219.692 Z M110.644,213.968 C110.379999,214.136001 110.248,214.389998 110.248,214.73 C110.248,215.070002 110.379999,215.329999 110.644,215.51 C110.908001,215.690001 111.469996,215.883999 112.33,216.092 C113.190004,216.300001 113.837998,216.591998 114.274,216.968 C114.710002,217.344002 114.928,217.897996 114.928,218.63 C114.928,219.362004 114.652003,219.955998 114.1,220.412 C113.547997,220.868002 112.824004,221.096 111.928,221.096 C110.615993,221.096 109.452005,220.644005 108.436,219.74 L109.324,218.672 C110.172004,219.408004 111.051995,219.776 111.964,219.776 C112.420002,219.776 112.781999,219.678001 113.05,219.482 C113.318001,219.285999 113.452,219.026002 113.452,218.702 C113.452,218.377998 113.326001,218.126001 113.074,217.946 C112.821999,217.765999 112.388003,217.602001 111.772,217.454 C111.155997,217.305999 110.688002,217.170001 110.368,217.046 C110.047998,216.921999 109.764001,216.760001 109.516,216.56 C109.019998,216.183998 108.772,215.608004 108.772,214.832 C108.772,214.055996 109.053997,213.458002 109.618,213.038 C110.182003,212.617998 110.879996,212.408 111.712,212.408 C112.248003,212.408 112.779997,212.495999 113.308,212.672 C113.836003,212.848001 114.291998,213.095998 114.676,213.416 L113.92,214.484 C113.671999,214.259999 113.336002,214.076001 112.912,213.932 C112.487998,213.787999 112.070002,213.716 111.658,213.716 C111.245998,213.716 110.908001,213.799999 110.644,213.968 L110.644,213.968 Z M116.68,212.612 L118.096,212.612 L118.096,221 L116.68,221 L116.68,212.612 Z M123.592,213.908 L123.592,221 L122.176,221 L122.176,213.908 L119.632,213.908 L119.632,212.612 L126.136,212.612 L126.136,213.908 L123.592,213.908 Z M133.564,212.612 L133.564,213.944 L129.088,213.944 L129.088,216.164 L133.108,216.164 L133.108,217.424 L129.088,217.424 L129.088,219.668 L133.708,219.668 L133.708,221 L127.672,221 L127.672,212.612 L133.564,212.612 Z" id="BEST-WEBSITE-Copy" fill="#5D6572"></path>
                <g id="Group-Copy-3" transform="translate(60.000000, 0.000000)">
                    <path d="M4.26648571,155.057114 L2.8272,155.057114 L2.8272,152.39038 L4.26648571,152.39038 C5.32048571,152.39038 5.72791429,152.873823 5.72791429,153.67362 C5.72791429,154.477873 5.32048571,155.057114 4.26648571,155.057114 M4.38827143,150.940051 L1.0757,150.940051 L1.0757,159.503899 L2.8272,159.503899 L2.8272,156.413873 L4.31962857,156.413873 C4.74255714,156.413873 5.29612857,156.371544 5.6637,156.235646 C6.93691429,155.778937 7.42405714,154.910076 7.42405714,153.67362 C7.42405714,152.581975 6.91477143,151.51038 5.77441429,151.118278 C5.42898571,150.997975 4.82005714,150.940051 4.38827143,150.940051" id="Fill-1" fill="#8C83A9"></path>
                    <mask id="mask-2" fill="white">
                        <use xlink:href="#path-1"></use>
                    </mask>
                    <g id="Clip-4"></g>
                    <path d="M10.9961429,150.941165 L9.3,150.941165 L9.3,159.505013 L10.9961429,159.505013 L10.9961429,150.941165 Z" id="Fill-3" fill="#8C83A9" mask="url(#mask-2)"></path>
                    <path d="M16.5876571,156.462886 L16.6430143,156.462886 L16.6430143,157.276051 C16.6430143,157.855291 16.1890857,158.42562 15.2148,158.42562 C14.6258,158.42562 14.2493714,158.169418 14.2493714,157.677063 C14.2493714,157.242633 14.6833714,157.019848 14.9380143,156.928506 C15.2037286,156.84162 15.8569429,156.719089 16.0695143,156.663392 C16.3108714,156.594329 16.4990857,156.540861 16.5876571,156.462886 M16.1226571,155.622987 C15.9123,155.658633 15.2812286,155.714329 14.7498,155.801215 C13.8397286,155.957165 12.6329429,156.393823 12.6329429,157.799595 C12.6329429,159.138532 13.7733,159.682127 14.7830143,159.682127 C15.7794429,159.682127 16.4990857,159.261063 16.5876571,158.868962 L16.6430143,158.868962 C16.6430143,159.082835 16.7116571,159.347949 16.8113,159.503899 L18.4055857,159.503899 L18.4055857,159.46157 C18.3280857,159.394734 18.1974429,159.225418 18.1974429,158.924658 L18.1974429,155.213063 C18.1974429,153.851848 17.1190857,153.172354 15.6133714,153.172354 C14.2050857,153.172354 13.1311571,153.796152 12.9983,155.221975 L14.4375857,155.302177 C14.4265143,154.67838 14.9601571,154.399899 15.5358714,154.399899 C16.2998,154.399899 16.5765857,154.745215 16.5765857,155.193013 C16.5765857,155.480405 16.4238,155.580658 16.1226571,155.622987" id="Fill-5" fill="#8C83A9" mask="url(#mask-2)"></path>
                    <path d="M20.88005,159.160365 C21.2343357,159.461124 21.6461929,159.503453 22.1111929,159.503453 L23.22055,159.503453 L23.22055,158.246947 L22.6979786,158.246947 C22.5097643,158.246947 22.32155,158.197934 22.1997643,158.090997 C22.0779786,157.977377 22.01155,157.776871 22.01155,157.534035 L22.01155,154.508618 L23.17405,154.508618 L23.17405,153.338997 L22.01155,153.338997 L22.01155,151.418592 L20.3596929,151.418592 L20.3596929,153.338997 L19.5957643,153.338997 L19.5957643,154.508618 L20.3596929,154.508618 L20.3596929,157.841478 C20.3596929,158.467504 20.5036214,158.835099 20.88005,159.160365" id="Fill-6" fill="#8C83A9" mask="url(#mask-2)"></path>
                    <path d="M28.2452071,156.462886 L28.3005643,156.462886 L28.3005643,157.276051 C28.3005643,157.855291 27.8466357,158.42562 26.87235,158.42562 C26.28335,158.42562 25.9069214,158.169418 25.9069214,157.677063 C25.9069214,157.242633 26.3409214,157.019848 26.5955643,156.928506 C26.8612786,156.84162 27.5144929,156.719089 27.72485,156.663392 C27.9684214,156.594329 28.1566357,156.540861 28.2452071,156.462886 M27.7802071,155.622987 C27.56985,155.658633 26.9387786,155.714329 26.40735,155.801215 C25.4972786,155.957165 24.2904929,156.393823 24.2904929,157.799595 C24.2904929,159.138532 25.43085,159.682127 26.4405643,159.682127 C27.4369929,159.682127 28.1566357,159.261063 28.2452071,158.868962 L28.3005643,158.868962 C28.3005643,159.082835 28.3692071,159.347949 28.46885,159.503899 L30.0631357,159.503899 L30.0631357,159.46157 C29.9856357,159.394734 29.8527786,159.225418 29.8527786,158.924658 L29.8527786,155.213063 C29.8527786,153.851848 28.7766357,153.172354 27.2709214,153.172354 C25.86485,153.172354 24.7864929,153.796152 24.65585,155.221975 L26.0951357,155.302177 C26.0840643,154.67838 26.6177071,154.399899 27.1912071,154.399899 C27.95735,154.399899 28.2341357,154.745215 28.2341357,155.193013 C28.2341357,155.480405 28.0791357,155.580658 27.7802071,155.622987" id="Fill-7" fill="#8C83A9" mask="url(#mask-2)"></path>
                    <path d="M33.4153429,153.729985 C33.6146286,153.382441 33.7054143,153.003706 33.7054143,152.660618 L33.7054143,150.954086 L33.6877,150.954086 L31.9959857,150.954086 L31.9849143,150.954086 L31.9849143,152.660618 L31.9959857,152.660618 L32.9060571,152.660618 C32.9060571,152.963605 32.8152714,153.320061 32.6027,153.607453 C32.4587714,153.807959 32.2484143,153.943858 31.9627714,154.044111 L31.9627714,154.670137 C31.9672,154.670137 31.9716286,154.665681 31.9760571,154.665681 L31.9760571,154.665681 C32.4853429,154.621124 33.1164143,154.244618 33.4153429,153.729985" id="Fill-8" fill="#8C83A9" mask="url(#mask-2)"></path>
                    <path d="M20.5620786,139.114187 L20.6750071,139.114187 L20.6750071,140.776162 C20.6750071,141.959149 19.7472214,143.11763 17.7565786,143.11763 C16.5564357,143.11763 15.7880786,142.591858 15.7880786,141.593782 C15.7880786,140.707099 16.6715786,140.25039 17.1919357,140.067706 C17.73665,139.889478 19.0674357,139.635504 19.4992214,139.524111 C19.9952214,139.388213 20.3805071,139.274592 20.5620786,139.114187 M19.6099357,137.4032 C19.1803643,137.474491 17.89165,137.585884 16.8088643,137.768567 C14.9510786,138.091605 12.4887929,138.976061 12.4887929,141.843301 C12.4887929,144.574643 14.8160071,145.688567 16.8730786,145.688567 C18.9102214,145.688567 20.3805071,144.824162 20.5620786,144.026592 L20.6750071,144.026592 C20.6750071,144.456567 20.8100786,145.006846 21.0137929,145.3232 L24.2710071,145.3232 L24.2710071,145.231858 C24.1137929,145.098187 23.84365,144.757327 23.84365,144.140213 L23.84365,136.563301 C23.84365,133.787403 21.6470786,132.399453 18.57365,132.399453 C15.6972929,132.399453 13.5029357,133.67601 13.2327929,136.58558 L16.1755786,136.748213 C16.1512214,135.471656 17.2362214,134.905782 18.4120071,134.905782 C19.9730786,134.905782 20.5377214,135.607554 20.5377214,136.520972 C20.5377214,137.109124 20.2232929,137.311858 19.6099357,137.4032" id="Fill-9" fill="#8C83A9" mask="url(#mask-2)"></path>
                    <path d="M26.2623143,132.739646 L26.2623143,140.501468 C26.2623143,142.363949 26.6453857,143.751899 27.5731714,144.618532 C28.3193857,145.322532 29.2250286,145.687899 30.5137429,145.687899 C31.1691714,145.687899 31.8268143,145.618835 32.3693143,145.367089 C33.0690286,145.048506 33.6358857,144.573975 33.9525286,143.979139 L33.9968143,143.979139 L34.1097429,145.322532 L37.4134571,145.322532 L37.4134571,132.739646 L33.9525286,132.739646 L33.9525286,139.387544 C33.9525286,140.136101 33.7931,141.071797 33.5672429,141.524051 C33.2727429,142.138937 32.6173143,142.660253 31.6673857,142.660253 C30.9654571,142.660253 30.4229571,142.435241 30.1284571,142.047595 C29.7453857,141.573063 29.7232429,140.846785 29.7232429,140.207392 L29.7232429,132.739646 L26.2623143,132.739646 Z" id="Fill-10" fill="#8C83A9" mask="url(#mask-2)"></path>
                    <path d="M12.07915,142.185944 L3.62279286,142.185944 L3.62279286,127.849742 L0.000221428571,127.849742 L0.000221428571,145.322754 L12.07915,145.322754 L12.07915,142.185944 Z" id="Fill-11" fill="#8C83A9" mask="url(#mask-2)"></path>
                    <path d="M44.8997357,143.252415 C43.5423786,143.252415 42.8183071,142.86477 42.4573786,142.185276 C42.29795,141.8912 42.2071643,141.525833 42.1628786,141.164922 L39.2245214,141.164922 C39.2245214,142.047149 39.3573786,142.842491 39.8090929,143.526441 C40.6925929,144.872061 42.4108786,145.689681 44.7403071,145.689681 C48.2477357,145.689681 50.2140214,144.005428 50.2140214,141.343149 C50.2140214,138.749934 47.9067357,137.861023 45.7367357,137.564719 C44.6960214,137.431048 43.8590214,137.312972 43.1570929,137.043403 C42.7053786,136.860719 42.4795214,136.564415 42.4795214,136.043099 C42.4795214,135.154187 43.4515929,134.746491 44.4923071,134.746491 C45.39795,134.746491 46.3700214,134.993782 46.6866643,135.769073 C46.7995929,136.02082 46.8217357,136.337175 46.8217357,136.6112 L49.78445,136.6112 C49.78445,135.860415 49.48995,134.971504 49.2198071,134.563808 C48.6086643,133.605833 47.0475929,132.400567 44.51445,132.400567 C41.4166643,132.400567 39.4703071,134.127149 39.4703071,136.408466 C39.4703071,138.974947 41.3701643,139.819301 43.8390929,140.206947 C45.39795,140.454238 47.0940929,140.705985 47.0940929,141.750846 C47.0940929,142.800162 45.8740214,143.252415 44.8997357,143.252415" id="Fill-12" fill="#8C83A9" mask="url(#mask-2)"></path>
                    <path d="M0,0.299868354 L0,70.9961722 C12.5970714,70.9961722 20.1876429,60.9040203 30.1209286,50.8051848 C40.1029286,40.6484253 48.4419286,30.6075139 60.2241429,30.6075139 L60.2241429,0.299868354 L0,0.299868354 Z" id="Fill-13" fill="#8C83A9" mask="url(#mask-2)"></path>
                    <path d="M0,176 L60.2241429,176 L60.2241429,169.316456 L0,169.316456 L0,176 Z" id="Fill-14" fill="#8C83A9" mask="url(#mask-2)"></path>
                    <path d="M38.5617857,159.508577 L38.5617857,150.931362 L37.1424286,150.931362 C37.045,151.381387 36.611,151.945033 36.2788571,152.125489 C35.9445,152.303716 35.4573571,152.473033 34.8373571,152.481944 L34.8373571,153.473337 L36.8656429,153.473337 L36.8656429,159.508577 L38.5617857,159.508577 Z" id="Fill-15" fill="#8C83A9" mask="url(#mask-2)"></path>
                    <path d="M43.0685214,158.29039 C42.1473786,158.29039 41.7488071,157.746795 41.58495,157.198744 L39.8423071,157.298997 C39.9198071,157.724516 40.0748071,158.203504 40.3958786,158.624567 C40.8630929,159.25282 41.7488071,159.742947 43.0463786,159.742947 C45.1743071,159.742947 46.3943786,158.203504 46.3943786,156.483605 C46.3943786,154.413934 44.8753786,153.65201 43.52245,153.65201 C42.7695929,153.65201 42.1695214,153.966137 41.92595,154.300314 L41.8351643,154.300314 L42.1473786,152.33758 L45.8408071,152.33758 L45.8408071,150.945175 L40.9760214,150.945175 L40.2187357,155.862035 L41.7930929,155.862035 C42.0610214,155.291706 42.6013071,155.057782 43.1460214,155.057782 C43.9542357,155.057782 44.6517357,155.614744 44.6517357,156.496972 C44.6517357,157.577478 44.11145,158.29039 43.0685214,158.29039" id="Fill-16" fill="#8C83A9" mask="url(#mask-2)"></path>
                </g>
            </g>
        </g>
    </g>
</svg>