<?xml version="1.0" encoding="UTF-8" standalone="no"?>
<svg width="180px" height="264px" viewBox="0 0 180 264" version="1.1" xmlns="http://www.w3.org/2000/svg" xmlns:xlink="http://www.w3.org/1999/xlink">
    <!-- Generator: Sketch 3.8.2 (29753) - http://www.bohemiancoding.com/sketch -->
    <title>Group 5</title>
    <desc>Created with Sketch.</desc>
    <defs></defs>
    <g id="Welcome" stroke="none" stroke-width="1" fill="none" fill-rule="evenodd">
        <g id="premios" transform="translate(-1009.000000, -1012.000000)">
            <g id="Group-5" transform="translate(1009.000000, 1012.000000)">
                <path d="M0,0 L180,0 L180,263.7 L0,263.7 L0,0 Z M7,7 L173,7 L173,257 L7,257 L7,7 Z" id="Combined-Shape-Copy-9" fill="#2E3136"></path>
                <path d="M80.79,173.92 C80.79,175.480008 81.0666639,176.739995 81.62,177.7 C82.1733361,178.660005 83.0366608,179.14 84.21,179.14 C85.3833392,179.14 86.2399973,178.663338 86.78,177.71 C87.3200027,176.756662 87.59,175.493341 87.59,173.92 C87.59,172.346659 87.3200027,171.083338 86.78,170.13 C86.2399973,169.176662 85.3833392,168.7 84.21,168.7 C83.0366608,168.7 82.1733361,169.179995 81.62,170.14 C81.0666639,171.100005 80.79,172.359992 80.79,173.92 L80.79,173.92 Z M78.51,173.92 C78.51,171.719989 78.9833286,169.96334 79.93,168.65 C80.8766714,167.33666 82.3033238,166.68 84.21,166.68 C86.1166762,166.68 87.5433286,167.33666 88.49,168.65 C89.4366714,169.96334 89.91,171.719989 89.91,173.92 C89.91,176.120011 89.4366714,177.87666 88.49,179.19 C87.5433286,180.50334 86.1166762,181.16 84.21,181.16 C82.3033238,181.16 80.8766714,180.50334 79.93,179.19 C78.9833286,177.87666 78.51,176.120011 78.51,173.92 L78.51,173.92 Z M100.81,167 L100.81,169.14 L94.91,169.14 L94.91,172.58 C95.4966696,172.259998 96.1633296,172.1 96.91,172.1 C98.2166732,172.1 99.3433286,172.493329 100.29,173.28 C101.236671,174.066671 101.71,175.133327 101.71,176.48 C101.71,177.826673 101.216672,178.943329 100.23,179.83 C99.2433284,180.716671 98.0300072,181.16 96.59,181.16 C94.7099906,181.16 93.2100056,180.53334 92.09,179.28 L93.35,177.56 C93.4566672,177.666667 93.5999991,177.793333 93.78,177.94 C93.9600009,178.086667 94.3299972,178.283332 94.89,178.53 C95.4500028,178.776668 96.06333,178.9 96.73,178.9 C97.39667,178.9 98.0033306,178.700002 98.55,178.3 C99.0966694,177.899998 99.37,177.316671 99.37,176.55 C99.37,175.78333 99.0800029,175.190002 98.5,174.77 C97.9199971,174.349998 97.1866711,174.14 96.3,174.14 C95.4133289,174.14 94.570004,174.359998 93.77,174.8 L92.77,173.72 L92.77,167 L100.81,167 Z" id="05-copy" fill="#5D6572"></path>
                <path d="M103.166155,148 L76,148" id="Line-Copy-7" stroke="#5D6572" stroke-linecap="square"></path>
                <path d="M59.194,105.932 L59.194,108.236 L62.914,108.236 L62.914,109.544 L59.194,109.544 L59.194,113 L57.778,113 L57.778,104.612 L63.37,104.612 L63.358,105.932 L59.194,105.932 Z M70.918,104.612 L70.918,105.944 L66.442,105.944 L66.442,108.164 L70.462,108.164 L70.462,109.424 L66.442,109.424 L66.442,111.668 L71.062,111.668 L71.062,113 L65.026,113 L65.026,104.612 L70.918,104.612 Z M74.062,111.092 L73.222,113 L71.71,113 L75.406,104.612 L76.918,104.612 L80.614,113 L79.102,113 L78.262,111.092 L74.062,111.092 Z M77.686,109.784 L76.162,106.328 L74.638,109.784 L77.686,109.784 Z M84.286,105.908 L84.286,113 L82.87,113 L82.87,105.908 L80.326,105.908 L80.326,104.612 L86.83,104.612 L86.83,105.908 L84.286,105.908 Z M91.81,111.752 C92.4660033,111.752 92.9859981,111.528002 93.37,111.08 C93.7540019,110.631998 93.946,110.024004 93.946,109.256 L93.946,104.612 L95.362,104.612 L95.362,109.316 C95.362,110.524006 95.0300033,111.453997 94.366,112.106 C93.7019967,112.758003 92.8500052,113.084 91.81,113.084 C90.7699948,113.084 89.9180033,112.758003 89.254,112.106 C88.5899967,111.453997 88.258,110.524006 88.258,109.316 L88.258,104.612 L89.674,104.612 L89.674,109.256 C89.674,110.024004 89.8659981,110.631998 90.25,111.08 C90.6340019,111.528002 91.1539967,111.752 91.81,111.752 L91.81,111.752 Z M104.278,107.336 C104.278,108.720007 103.674006,109.591998 102.466,109.952 L104.662,113 L102.862,113 L100.858,110.18 L98.998,110.18 L98.998,113 L97.582,113 L97.582,104.612 L100.702,104.612 C101.982006,104.612 102.897997,104.827998 103.45,105.26 C104.002003,105.692002 104.278,106.383995 104.278,107.336 L104.278,107.336 Z M102.394,108.524 C102.682001,108.275999 102.826,107.878003 102.826,107.33 C102.826,106.781997 102.678001,106.406001 102.382,106.202 C102.085999,105.997999 101.558004,105.896 100.798,105.896 L98.998,105.896 L98.998,108.896 L100.762,108.896 C101.562004,108.896 102.105999,108.772001 102.394,108.524 L102.394,108.524 Z M112.21,104.612 L112.21,105.944 L107.734,105.944 L107.734,108.164 L111.754,108.164 L111.754,109.424 L107.734,109.424 L107.734,111.668 L112.354,111.668 L112.354,113 L106.318,113 L106.318,104.612 L112.21,104.612 Z M120.514,105.71 C121.322004,106.442004 121.726,107.459993 121.726,108.764 C121.726,110.068007 121.334004,111.099996 120.55,111.86 C119.765996,112.620004 118.566008,113 116.95,113 L114.166,113 L114.166,104.612 L117.046,104.612 C118.550008,104.612 119.705996,104.977996 120.514,105.71 L120.514,105.71 Z M120.298,108.8 C120.298,106.87999 119.198011,105.92 116.998,105.92 L115.582,105.92 L115.582,111.668 L117.154,111.668 C118.170005,111.668 118.947997,111.426002 119.488,110.942 C120.028003,110.457998 120.298,109.744005 120.298,108.8 L120.298,108.8 Z M63.892,120.344 C64.4760029,120.832002 64.768,121.583995 64.768,122.6 C64.768,123.616005 64.470003,124.359998 63.874,124.832 C63.277997,125.304002 62.3640062,125.54 61.132,125.54 L59.644,125.54 L59.644,128 L58.228,128 L58.228,119.612 L61.108,119.612 C62.3800064,119.612 63.3079971,119.855998 63.892,120.344 L63.892,120.344 Z M62.89,123.806 C63.1740014,123.505999 63.316,123.066003 63.316,122.486 C63.316,121.905997 63.1360018,121.496001 62.776,121.256 C62.4159982,121.015999 61.8520038,120.896 61.084,120.896 L59.644,120.896 L59.644,124.256 L61.288,124.256 C62.0720039,124.256 62.6059986,124.106002 62.89,123.806 L62.89,123.806 Z M73.132,122.336 C73.132,123.720007 72.528006,124.591998 71.32,124.952 L73.516,128 L71.716,128 L69.712,125.18 L67.852,125.18 L67.852,128 L66.436,128 L66.436,119.612 L69.556,119.612 C70.8360064,119.612 71.7519972,119.827998 72.304,120.26 C72.8560028,120.692002 73.132,121.383995 73.132,122.336 L73.132,122.336 Z M71.248,123.524 C71.5360014,123.275999 71.68,122.878003 71.68,122.33 C71.68,121.781997 71.5320015,121.406001 71.236,121.202 C70.9399985,120.997999 70.4120038,120.896 69.652,120.896 L67.852,120.896 L67.852,123.896 L69.616,123.896 C70.416004,123.896 70.9599986,123.772001 71.248,123.524 L71.248,123.524 Z M79.048,120.704 C78.2159958,120.704 77.5140029,120.999997 76.942,121.592 C76.3699971,122.184003 76.084,122.901996 76.084,123.746 C76.084,124.590004 76.3699971,125.307997 76.942,125.9 C77.5140029,126.492003 78.2159958,126.788 79.048,126.788 C79.8800042,126.788 80.5819971,126.492003 81.154,125.9 C81.7260029,125.307997 82.012,124.590004 82.012,123.746 C82.012,122.901996 81.7260029,122.184003 81.154,121.592 C80.5819971,120.999997 79.8800042,120.704 79.048,120.704 L79.048,120.704 Z M79.048,128.084 C77.7999938,128.084 76.7520042,127.670004 75.904,126.842 C75.0559958,126.013996 74.632,124.982006 74.632,123.746 C74.632,122.509994 75.0559958,121.478004 75.904,120.65 C76.7520042,119.821996 77.7999938,119.408 79.048,119.408 C80.2960062,119.408 81.3439958,119.821996 82.192,120.65 C83.0400042,121.478004 83.464,122.509994 83.464,123.746 C83.464,124.982006 83.0400042,126.013996 82.192,126.842 C81.3439958,127.670004 80.2960062,128.084 79.048,128.084 L79.048,128.084 Z M85.276,120.884 L85.276,119.612 L89.356,119.612 L89.356,125.144 C89.356,126.120005 89.1080025,126.851998 88.612,127.34 C88.1159975,127.828002 87.4800039,128.072 86.704,128.072 C85.7279951,128.072 84.8960034,127.728003 84.208,127.04 L85.012,125.924 C85.5560027,126.444003 86.0879974,126.704 86.608,126.704 C86.9760018,126.704 87.2899987,126.580001 87.55,126.332 C87.8100013,126.083999 87.94,125.712002 87.94,125.216 L87.94,120.884 L85.276,120.884 Z M97.504,119.612 L97.504,120.944 L93.028,120.944 L93.028,123.164 L97.048,123.164 L97.048,124.424 L93.028,124.424 L93.028,126.668 L97.648,126.668 L97.648,128 L91.612,128 L91.612,119.612 L97.504,119.612 Z M103.288,126.716 C103.776002,126.716 104.195998,126.634001 104.548,126.47 C104.900002,126.305999 105.267998,126.044002 105.652,125.684 L106.564,126.62 C105.675996,127.604005 104.598006,128.096 103.33,128.096 C102.061994,128.096 101.010004,127.688004 100.174,126.872 C99.3379958,126.055996 98.92,125.024006 98.92,123.776 C98.92,122.527994 99.3459957,121.488004 100.198,120.656 C101.050004,119.823996 102.125994,119.408 103.426,119.408 C104.726007,119.408 105.811996,119.887995 106.684,120.848 L105.784,121.832 C105.383998,121.447998 105.006002,121.180001 104.65,121.028 C104.293998,120.875999 103.876002,120.8 103.396,120.8 C102.547996,120.8 101.836003,121.073997 101.26,121.622 C100.683997,122.170003 100.396,122.869996 100.396,123.722 C100.396,124.574004 100.681997,125.285997 101.254,125.858 C101.826003,126.430003 102.503996,126.716 103.288,126.716 L103.288,126.716 Z M111.46,120.908 L111.46,128 L110.044,128 L110.044,120.908 L107.5,120.908 L107.5,119.612 L114.004,119.612 L114.004,120.908 L111.46,120.908 Z M117.064,120.968 C116.799999,121.136001 116.668,121.389998 116.668,121.73 C116.668,122.070002 116.799999,122.329999 117.064,122.51 C117.328001,122.690001 117.889996,122.883999 118.75,123.092 C119.610004,123.300001 120.257998,123.591998 120.694,123.968 C121.130002,124.344002 121.348,124.897996 121.348,125.63 C121.348,126.362004 121.072003,126.955998 120.52,127.412 C119.967997,127.868002 119.244004,128.096 118.348,128.096 C117.035993,128.096 115.872005,127.644005 114.856,126.74 L115.744,125.672 C116.592004,126.408004 117.471995,126.776 118.384,126.776 C118.840002,126.776 119.201999,126.678001 119.47,126.482 C119.738001,126.285999 119.872,126.026002 119.872,125.702 C119.872,125.377998 119.746001,125.126001 119.494,124.946 C119.241999,124.765999 118.808003,124.602001 118.192,124.454 C117.575997,124.305999 117.108002,124.170001 116.788,124.046 C116.467998,123.921999 116.184001,123.760001 115.936,123.56 C115.439998,123.183998 115.192,122.608004 115.192,121.832 C115.192,121.055996 115.473997,120.458002 116.038,120.038 C116.602003,119.617998 117.299996,119.408 118.132,119.408 C118.668003,119.408 119.199997,119.495999 119.728,119.672 C120.256003,119.848001 120.711998,120.095998 121.096,120.416 L120.34,121.484 C120.091999,121.259999 119.756002,121.076001 119.332,120.932 C118.907998,120.787999 118.490002,120.716 118.078,120.716 C117.665998,120.716 117.328001,120.799999 117.064,120.968 L117.064,120.968 Z" id="FEATURED-PROJECTS-Copy" fill="#5D6572"></path>
                <g id="Group-Copy-7" transform="translate(39.000000, 69.000000)" fill="#7CCAF9">
                    <path d="M8.64771242,-2.49929144e-07 C9.50588235,-2.49929144e-07 10.2980392,0.0655169924 11.024183,0.262068717 C11.7503268,0.393103199 12.3444444,0.655172165 12.872549,0.982758359 C13.4006536,1.31034457 13.796732,1.76896526 14.0607843,2.35862043 C14.3248366,2.9482756 14.4568627,3.66896526 14.4568627,4.45517215 C14.4568627,5.37241353 14.2588235,6.15862043 13.796732,6.74827586 C13.4006536,7.33793103 12.7405229,7.86206897 11.948366,8.25517241 C13.0705882,8.58275862 13.9287582,9.17241379 14.4568627,9.95862069 C14.9849673,10.7448276 15.3150327,11.7275862 15.3150327,12.8413793 C15.3150327,13.7586207 15.1169935,14.5448276 14.7869281,15.2 C14.4568627,15.8551724 13.9287582,16.4448276 13.3346405,16.837931 C12.7405229,17.2310345 12.0143791,17.5586207 11.2222222,17.7551724 C10.4300654,17.9517241 9.6379085,18.0827586 8.84575163,18.0827586 L0,18.0827586 L0,-2.49929144e-07 L8.64771242,-2.49929144e-07 L8.64771242,-2.49929144e-07 Z M8.11960784,7.33793103 C8.84575163,7.33793103 9.43986928,7.14137931 9.90196078,6.8137931 C10.3640523,6.48620663 10.5620915,5.89655146 10.5620915,5.17586181 C10.5620915,4.78275836 10.4960784,4.38965491 10.3640523,4.12758594 C10.2320261,3.86551698 10.0339869,3.66896526 9.76993464,3.47241353 C9.50588235,3.34137905 9.24183007,3.21034457 8.91176471,3.14482732 C8.58169935,3.07931008 8.25163399,3.07931008 7.85555556,3.07931008 L4.02679739,3.07931008 L4.02679739,7.33793103 L8.11960784,7.33793103 L8.11960784,7.33793103 Z M8.31764706,15.0689655 C8.71372549,15.0689655 9.10980392,15.0034483 9.43986928,14.937931 C9.76993464,14.8724138 10.1,14.7413793 10.3640523,14.5448276 C10.6281046,14.3482759 10.8261438,14.1517241 11.024183,13.8241379 C11.1562092,13.4965517 11.2882353,13.1034483 11.2882353,12.6448276 C11.2882353,11.7275862 11.024183,11.0724138 10.4960784,10.6137931 C9.96797386,10.2206897 9.24183007,10.0241379 8.38366013,10.0241379 L4.02679739,10.0241379 L4.02679739,15.0689655 L8.31764706,15.0689655 L8.31764706,15.0689655 Z" id="path12"></path>
                    <path d="M21.0581699,15.0034483 C21.5862745,15.5275862 22.3784314,15.7896552 23.4346405,15.7896552 C24.1607843,15.7896552 24.820915,15.5931034 25.3490196,15.2655172 C25.8771242,14.8724138 26.2071895,14.4793103 26.3392157,14.0862069 L29.5738562,14.0862069 C29.0457516,15.6586207 28.2535948,16.7724138 27.1973856,17.4931034 C26.1411765,18.1482759 24.8869281,18.5413793 23.3686275,18.5413793 C22.3124183,18.5413793 21.3882353,18.3448276 20.5300654,18.0172414 C19.6718954,17.6896552 19.0117647,17.2310345 18.4176471,16.5758621 C17.8235294,15.9862069 17.3614379,15.2655172 17.0973856,14.4137931 C16.7673203,13.562069 16.6352941,12.6448276 16.6352941,11.5965517 C16.6352941,10.6137931 16.7673203,9.69655172 17.0973856,8.84482759 C17.427451,7.99310345 17.8895425,7.27241379 18.4836601,6.61724138 C19.0777778,6.02758594 19.8039216,5.50344801 20.5960784,5.17586181 C21.4542484,4.8482756 22.3124183,4.65172388 23.3686275,4.65172388 C24.4908497,4.65172388 25.4810458,4.8482756 26.3392157,5.30689629 C27.1973856,5.76551698 27.8575163,6.28965491 28.3856209,7.07586207 C28.9137255,7.79655172 29.3098039,8.64827586 29.5738562,9.56551724 C29.7058824,10.4827586 29.7718954,11.4 29.7058824,12.4482759 L20.1339869,12.4482759 C20.1339869,13.4965517 20.5300654,14.4793103 21.0581699,15.0034483 L21.0581699,15.0034483 Z M25.2169935,8.12413793 C24.754902,7.66551724 24.0287582,7.40344828 23.1705882,7.40344828 C22.5764706,7.40344828 22.1143791,7.53448276 21.7183007,7.73103448 C21.3222222,7.92758621 21.0581699,8.18965517 20.7941176,8.45172414 C20.5300654,8.7137931 20.3980392,9.04137931 20.3320261,9.36896552 C20.2660131,9.69655172 20.2,9.95862069 20.2,10.2206897 L26.1411765,10.2206897 C26.0091503,9.23793103 25.679085,8.58275862 25.2169935,8.12413793 L25.2169935,8.12413793 Z" id="path14"></path>
                    <path d="M34.854902,-2.49929144e-07 L34.854902,6.8137931 L34.920915,6.8137931 C35.3830065,6.02758594 35.9771242,5.50344801 36.703268,5.17586181 C37.4294118,4.8482756 38.0895425,4.65172388 38.8156863,4.65172388 C39.8058824,4.65172388 40.5980392,4.78275836 41.1921569,5.04482732 C41.7862745,5.30689629 42.3143791,5.69999974 42.6444444,6.15862043 C42.9745098,6.61724138 43.2385621,7.20689655 43.3705882,7.86206897 C43.5026144,8.51724138 43.5686275,9.23793103 43.5686275,10.0896552 L43.5686275,18.1482759 L39.9379085,18.1482759 L39.9379085,10.7448276 C39.9379085,9.63103448 39.7398693,8.84482759 39.4098039,8.32068966 C39.0797386,7.79655172 38.4856209,7.53448276 37.627451,7.53448276 C36.6372549,7.53448276 35.9111111,7.86206897 35.5150327,8.3862069 C35.0529412,8.97586207 34.854902,9.95862069 34.854902,11.2689655 L34.854902,18.1482759 L31.224183,18.1482759 L31.224183,-2.49929136e-07 L34.854902,-2.49929136e-07 L34.854902,-2.49929144e-07 Z" id="path16"></path>
                    <path d="M46.2091503,6.94482759 C46.6052288,6.35517215 47.0673203,5.9620687 47.6614379,5.56896526 C48.2555556,5.24137905 48.9156863,4.97931008 49.6418301,4.8482756 C50.3679739,4.71724112 51.0941176,4.65172388 51.8202614,4.65172388 C52.4803922,4.65172388 53.1405229,4.71724112 53.8666667,4.78275836 C54.5267974,4.8482756 55.1869281,5.04482732 55.7150327,5.30689629 C56.3091503,5.56896526 56.7052288,5.9620687 57.1013072,6.42068939 C57.4313725,6.87931034 57.6294118,7.53448276 57.6294118,8.32068966 L57.6294118,15.2 C57.6294118,15.7896552 57.6954248,16.3793103 57.7614379,16.9034483 C57.827451,17.4275862 58.0254902,17.8862069 58.2235294,18.1482759 L54.5267974,18.1482759 C54.3947712,18.0172414 54.3287582,17.7551724 54.2627451,17.5586207 C54.196732,17.362069 54.196732,17.1 54.196732,16.9034483 C53.6026144,17.4931034 52.9424837,17.8862069 52.1503268,18.1482759 C51.3581699,18.4103448 50.5660131,18.4758621 49.7738562,18.4758621 C49.1137255,18.4758621 48.5856209,18.4103448 47.9915033,18.2137931 C47.4633987,18.0827586 47.0013072,17.8206897 46.5392157,17.4931034 C46.1431373,17.1655172 45.8130719,16.7724138 45.5490196,16.2482759 C45.3509804,15.7241379 45.2189542,15.2 45.2189542,14.4793103 C45.2189542,13.7586207 45.3509804,13.1034483 45.6150327,12.6448276 C45.879085,12.1862069 46.2091503,11.7931034 46.6052288,11.4655172 C47.0013072,11.2034483 47.5294118,10.9413793 48.0575163,10.8103448 C48.5856209,10.6793103 49.1137255,10.5482759 49.7078431,10.4827586 C50.2359477,10.4172414 50.7640523,10.3517241 51.2921569,10.2862069 C51.8202614,10.2206897 52.2823529,10.1551724 52.6784314,10.0896552 C53.0745098,9.95862069 53.4045752,9.82758621 53.6686275,9.63103448 C53.9326797,9.43448276 53.9986928,9.17241379 53.9986928,8.77931034 C53.9986928,8.3862069 53.9326797,8.05862069 53.8006536,7.86206897 C53.6686275,7.66551724 53.4705882,7.46896552 53.272549,7.33793103 C53.0745098,7.20689655 52.8104575,7.14137931 52.5464052,7.07586207 C52.2823529,7.01034483 51.9522876,7.01034483 51.6222222,7.01034483 C50.8960784,7.01034483 50.3679739,7.14137931 49.9718954,7.46896552 C49.575817,7.79655172 49.3117647,8.32068966 49.2457516,8.97586207 L45.6150327,8.97586207 C45.6150327,8.18965517 45.879085,7.46896552 46.2091503,6.94482759 L46.2091503,6.94482759 Z M53.4045752,12.0551724 C53.2065359,12.1206897 52.9424837,12.1862069 52.6784314,12.2517241 C52.4143791,12.3172414 52.1503268,12.3172414 51.8202614,12.3827586 C51.5562092,12.4482759 51.2261438,12.4482759 50.9620915,12.5137931 L50.1699346,12.7103448 C49.9058824,12.7758621 49.6418301,12.9068966 49.5098039,13.037931 C49.3117647,13.1689655 49.1797386,13.3655172 49.0477124,13.562069 C48.8496732,13.8241379 48.8496732,14.0862069 48.8496732,14.4137931 C48.8496732,14.7413793 48.9156863,15.0034483 49.0477124,15.2 C49.1797386,15.3965517 49.3117647,15.5931034 49.5098039,15.7241379 C49.7078431,15.8551724 49.9718954,15.9206897 50.2359477,15.9862069 C50.5,16.0517241 50.7640523,16.0517241 51.0941176,16.0517241 C51.8202614,16.0517241 52.348366,15.9206897 52.7444444,15.7241379 C53.1405229,15.462069 53.4045752,15.2 53.6026144,14.8724138 C53.8006536,14.5448276 53.9326797,14.2172414 53.9326797,13.8896552 C53.9986928,13.562069 53.9986928,13.3 53.9986928,13.1034483 L53.9986928,11.7275862 C53.8006536,11.8586207 53.6026144,11.9896552 53.4045752,12.0551724 L53.4045752,12.0551724 Z" id="path18"></path>
                    <path d="M63.1084967,4.97931008 L63.1084967,6.8137931 L63.1745098,6.8137931 C63.6366013,6.02758594 64.230719,5.50344801 64.9568627,5.17586181 C65.6830065,4.8482756 66.4751634,4.65172388 67.2013072,4.65172388 C68.1915033,4.65172388 68.9836601,4.78275836 69.5777778,5.04482732 C70.2379085,5.30689629 70.7,5.69999974 71.0300654,6.15862043 C71.3601307,6.61724138 71.624183,7.20689655 71.8222222,7.86206897 C71.9542484,8.51724138 72.0202614,9.23793103 72.0202614,10.0896552 L72.0202614,18.1482759 L68.3895425,18.1482759 L68.3895425,10.7448276 C68.3895425,9.63103448 68.1915033,8.84482759 67.8614379,8.32068966 C67.5313725,7.79655172 66.9372549,7.46896552 66.0130719,7.46896552 C65.0228758,7.46896552 64.296732,7.86206897 63.8346405,8.45172414 C63.372549,9.04137931 63.1745098,10.0241379 63.1745098,11.3344828 L63.1745098,18.2137931 L59.5437908,18.2137931 L59.5437908,4.97931008 L63.1084967,4.97931008 L63.1084967,4.97931008 Z" id="path20"></path>
                    <path d="M80.1398693,7.33793103 C79.5457516,7.33793103 79.0836601,7.46896552 78.6875817,7.73103448 C78.2915033,7.99310345 77.9614379,8.32068966 77.6973856,8.77931034 C77.4333333,9.17241379 77.3013072,9.63103448 77.169281,10.1551724 C77.0372549,10.6793103 77.0372549,11.137931 77.0372549,11.662069 C77.0372549,12.1206897 77.103268,12.6448276 77.169281,13.1034483 C77.3013072,13.6275862 77.4333333,14.0206897 77.6973856,14.4137931 C77.9614379,14.8068966 78.2254902,15.1344828 78.6215686,15.3965517 C79.0176471,15.6586207 79.4797386,15.7896552 80.0738562,15.7896552 C80.9320261,15.7896552 81.5921569,15.5275862 82.1202614,15.0689655 C82.5823529,14.6103448 82.9124183,13.9551724 82.9784314,13.1034483 L86.4771242,13.1034483 C86.2130719,14.8724138 85.5529412,16.1827586 84.430719,17.1 C83.3084967,18.0172414 81.8562092,18.4758621 80.0738562,18.4758621 C79.0836601,18.4758621 78.1594771,18.2793103 77.3673203,17.9517241 C76.5091503,17.6241379 75.8490196,17.1655172 75.254902,16.5758621 C74.6607843,15.9862069 74.1986928,15.2655172 73.8686275,14.4793103 C73.5385621,13.6275862 73.4065359,12.7758621 73.4065359,11.7931034 C73.4065359,10.7448276 73.5385621,9.82758621 73.8686275,8.97586207 C74.1986928,8.12413793 74.5947712,7.33793103 75.1888889,6.68275862 C75.7830065,6.02758594 76.5091503,5.56896526 77.3013072,5.17586181 C78.1594771,4.8482756 79.0836601,4.65172388 80.1398693,4.65172388 C80.9320261,4.65172388 81.6581699,4.78275836 82.3843137,4.97931008 C83.1104575,5.17586181 83.7705882,5.50344801 84.2986928,5.89655146 C84.8928105,6.28965491 85.354902,6.8137931 85.6849673,7.46896552 C86.0150327,8.05862069 86.2130719,8.84482759 86.279085,9.69655172 L82.7143791,9.69655172 C82.5823529,8.12413793 81.724183,7.33793103 80.1398693,7.33793103 L80.1398693,7.33793103 Z" id="path22"></path>
                    <rect id="rect24" x="19.4078431" y="1.24482732" width="7.39346405" height="1.76896552"></rect>
                    <path d="M91.9562092,15.0034483 C92.4843137,15.5275862 93.3424837,15.7896552 94.3326797,15.7896552 C95.0588235,15.7896552 95.7189542,15.5931034 96.2470588,15.2655172 C96.7751634,14.8724138 97.1052288,14.4793103 97.2372549,14.0862069 L100.405882,14.0862069 C99.8777778,15.6586207 99.0856209,16.7724138 98.0294118,17.4931034 C96.9732026,18.1482759 95.7189542,18.5413793 94.2006536,18.5413793 C93.1444444,18.5413793 92.2202614,18.3448276 91.3620915,18.0172414 C90.5039216,17.6896552 89.8437908,17.2310345 89.2496732,16.5758621 C88.6555556,15.9862069 88.1934641,15.2655172 87.9294118,14.4137931 C87.5993464,13.562069 87.4673203,12.6448276 87.4673203,11.5965517 C87.4673203,10.6137931 87.5993464,9.69655172 87.9294118,8.84482759 C88.2594771,7.99310345 88.7215686,7.27241379 89.3156863,6.61724138 C89.9098039,6.02758594 90.6359477,5.50344801 91.4281046,5.17586181 C92.2862745,4.8482756 93.2104575,4.65172388 94.2006536,4.65172388 C95.3228758,4.65172388 96.3130719,4.8482756 97.1052288,5.30689629 C97.9633987,5.76551698 98.6235294,6.28965491 99.151634,7.07586207 C99.6797386,7.79655172 100.075817,8.64827586 100.339869,9.56551724 C100.603922,10.4827586 100.669935,11.4655172 100.603922,12.5137931 L91.0320261,12.5137931 C91.0320261,13.4965517 91.4281046,14.4793103 91.9562092,15.0034483 L91.9562092,15.0034483 Z M96.1810458,8.12413793 C95.7189542,7.66551724 94.9928105,7.40344828 94.1346405,7.40344828 C93.5405229,7.40344828 93.0784314,7.53448276 92.6823529,7.73103448 C92.2862745,7.92758621 91.9562092,8.18965517 91.7581699,8.45172414 C91.5601307,8.7137931 91.3620915,9.04137931 91.2960784,9.36896552 C91.2300654,9.69655172 91.1640523,9.95862069 91.1640523,10.2206897 L97.1052288,10.2206897 C96.9071895,9.23793103 96.5771242,8.58275862 96.1810458,8.12413793 L96.1810458,8.12413793 Z" id="path26"></path>
                </g>
            </g>
        </g>
    </g>
</svg>