<?xml version="1.0" encoding="UTF-8" standalone="no"?>
<svg width="180px" height="264px" viewBox="0 0 180 264" version="1.1" xmlns="http://www.w3.org/2000/svg" xmlns:xlink="http://www.w3.org/1999/xlink">
    <!-- Generator: Sketch 3.8.2 (29753) - http://www.bohemiancoding.com/sketch -->
    <title>Group 6</title>
    <desc>Created with Sketch.</desc>
    <defs></defs>
    <g id="Welcome" stroke="none" stroke-width="1" fill="none" fill-rule="evenodd">
        <g id="premios" transform="translate(-508.000000, -1012.000000)">
            <g id="Group-6" transform="translate(508.000000, 1012.000000)">
                <path d="M0,0 L180,0 L180,263.7 L0,263.7 L0,0 Z M7,7 L173,7 L173,257 L7,257 L7,7 Z" id="Combined-Shape-Copy-7" fill="#2E3136"></path>
                <path d="M103.166155,148 L76,148" id="Line-Copy-6" stroke="#5D6572" stroke-linecap="square"></path>
                <path d="M55.326,105.968 C55.0619987,106.136001 54.93,106.389998 54.93,106.73 C54.93,107.070002 55.0619987,107.329999 55.326,107.51 C55.5900013,107.690001 56.1519957,107.883999 57.012,108.092 C57.8720043,108.300001 58.5199978,108.591998 58.956,108.968 C59.3920022,109.344002 59.61,109.897996 59.61,110.63 C59.61,111.362004 59.3340028,111.955998 58.782,112.412 C58.2299972,112.868002 57.5060045,113.096 56.61,113.096 C55.2979934,113.096 54.1340051,112.644005 53.118,111.74 L54.006,110.672 C54.8540042,111.408004 55.7339954,111.776 56.646,111.776 C57.1020023,111.776 57.4639987,111.678001 57.732,111.482 C58.0000013,111.285999 58.134,111.026002 58.134,110.702 C58.134,110.377998 58.0080013,110.126001 57.756,109.946 C57.5039987,109.765999 57.0700031,109.602001 56.454,109.454 C55.8379969,109.305999 55.3700016,109.170001 55.05,109.046 C54.7299984,108.921999 54.4460012,108.760001 54.198,108.56 C53.7019975,108.183998 53.454,107.608004 53.454,106.832 C53.454,106.055996 53.7359972,105.458002 54.3,105.038 C54.8640028,104.617998 55.5619958,104.408 56.394,104.408 C56.9300027,104.408 57.4619974,104.495999 57.99,104.672 C58.5180026,104.848001 58.9739981,105.095998 59.358,105.416 L58.602,106.484 C58.3539988,106.259999 58.0180021,106.076001 57.594,105.932 C57.1699979,105.787999 56.7520021,105.716 56.34,105.716 C55.9279979,105.716 55.5900013,105.799999 55.326,105.968 L55.326,105.968 Z M61.362,104.612 L62.778,104.612 L62.778,113 L61.362,113 L61.362,104.612 Z M68.274,105.908 L68.274,113 L66.858,113 L66.858,105.908 L64.314,105.908 L64.314,104.612 L70.818,104.612 L70.818,105.908 L68.274,105.908 Z M78.246,104.612 L78.246,105.944 L73.77,105.944 L73.77,108.164 L77.79,108.164 L77.79,109.424 L73.77,109.424 L73.77,111.668 L78.39,111.668 L78.39,113 L72.354,113 L72.354,104.612 L78.246,104.612 Z M87.366,105.704 C86.5339958,105.704 85.8320029,105.999997 85.26,106.592 C84.6879971,107.184003 84.402,107.901996 84.402,108.746 C84.402,109.590004 84.6879971,110.307997 85.26,110.9 C85.8320029,111.492003 86.5339958,111.788 87.366,111.788 C88.1980042,111.788 88.8999971,111.492003 89.472,110.9 C90.0440029,110.307997 90.33,109.590004 90.33,108.746 C90.33,107.901996 90.0440029,107.184003 89.472,106.592 C88.8999971,105.999997 88.1980042,105.704 87.366,105.704 L87.366,105.704 Z M87.366,113.084 C86.1179938,113.084 85.0700042,112.670004 84.222,111.842 C83.3739958,111.013996 82.95,109.982006 82.95,108.746 C82.95,107.509994 83.3739958,106.478004 84.222,105.65 C85.0700042,104.821996 86.1179938,104.408 87.366,104.408 C88.6140062,104.408 89.6619958,104.821996 90.51,105.65 C91.3580042,106.478004 91.782,107.509994 91.782,108.746 C91.782,109.982006 91.3580042,111.013996 90.51,111.842 C89.6619958,112.670004 88.6140062,113.084 87.366,113.084 L87.366,113.084 Z M94.986,105.932 L94.986,108.236 L98.706,108.236 L98.706,109.544 L94.986,109.544 L94.986,113 L93.57,113 L93.57,104.612 L99.162,104.612 L99.15,105.932 L94.986,105.932 Z M107.274,105.908 L107.274,113 L105.858,113 L105.858,105.908 L103.314,105.908 L103.314,104.612 L109.818,104.612 L109.818,105.908 L107.274,105.908 Z M111.354,113 L111.354,104.612 L112.77,104.612 L112.77,108.248 L116.934,108.248 L116.934,104.612 L118.35,104.612 L118.35,113 L116.934,113 L116.934,109.568 L112.77,109.568 L112.77,113 L111.354,113 Z M126.57,104.612 L126.57,105.944 L122.094,105.944 L122.094,108.164 L126.114,108.164 L126.114,109.424 L122.094,109.424 L122.094,111.668 L126.714,111.668 L126.714,113 L120.678,113 L120.678,104.612 L126.57,104.612 Z M84.93,120.71 C85.738004,121.442004 86.142,122.459993 86.142,123.764 C86.142,125.068007 85.7500039,126.099996 84.966,126.86 C84.1819961,127.620004 82.9820081,128 81.366,128 L78.582,128 L78.582,119.612 L81.462,119.612 C82.9660075,119.612 84.121996,119.977996 84.93,120.71 L84.93,120.71 Z M84.714,123.8 C84.714,121.87999 83.614011,120.92 81.414,120.92 L79.998,120.92 L79.998,126.668 L81.57,126.668 C82.5860051,126.668 83.3639973,126.426002 83.904,125.942 C84.4440027,125.457998 84.714,124.744005 84.714,123.8 L84.714,123.8 Z M89.154,126.092 L88.314,128 L86.802,128 L90.498,119.612 L92.01,119.612 L95.706,128 L94.194,128 L93.354,126.092 L89.154,126.092 Z M92.778,124.784 L91.254,121.328 L89.73,124.784 L92.778,124.784 Z M99.558,128 L98.118,128 L98.118,124.688 L94.998,119.612 L96.546,119.612 L98.838,123.428 L101.13,119.612 L102.678,119.612 L99.558,124.688 L99.558,128 Z" id="SITE-OF-THE-DAY-Copy-3" fill="#5D6572"></path>
                <path d="M42.7715,219.35 L42.7715,217.26 L40.6705,217.26 L40.6705,216.226 L42.7715,216.226 L42.7715,214.158 L43.7615,214.158 L43.7615,216.226 L45.8625,216.226 L45.8625,217.26 L43.7615,217.26 L43.7615,219.35 L42.7715,219.35 Z M51.3075,217.106 C51.3075,217.964004 51.4596651,218.656997 51.764,219.185 C52.0683349,219.713003 52.5431634,219.977 53.1885,219.977 C53.8338366,219.977 54.3049985,219.714836 54.602,219.1905 C54.8990015,218.666164 55.0475,217.971338 55.0475,217.106 C55.0475,216.240662 54.8990015,215.545836 54.602,215.0215 C54.3049985,214.497164 53.8338366,214.235 53.1885,214.235 C52.5431634,214.235 52.0683349,214.498997 51.764,215.027 C51.4596651,215.555003 51.3075,216.247996 51.3075,217.106 L51.3075,217.106 Z M50.0535,217.106 C50.0535,215.895994 50.3138307,214.929837 50.8345,214.2075 C51.3551693,213.485163 52.1398281,213.124 53.1885,213.124 C54.2371719,213.124 55.0218307,213.485163 55.5425,214.2075 C56.0631693,214.929837 56.3235,215.895994 56.3235,217.106 C56.3235,218.316006 56.0631693,219.282163 55.5425,220.0045 C55.0218307,220.726837 54.2371719,221.088 53.1885,221.088 C52.1398281,221.088 51.3551693,220.726837 50.8345,220.0045 C50.3138307,219.282163 50.0535,218.316006 50.0535,217.106 L50.0535,217.106 Z M60.6795,217.887 L60.6795,216.479 L61.9115,216.479 L61.9115,217.887 L62.8355,217.887 L62.8355,219.064 L61.9115,219.064 L61.9115,221 L60.6795,221 L60.6795,219.064 L57.3795,219.064 L57.3795,217.92 L60.2065,213.311 L61.6255,213.311 L58.8425,217.887 L60.6795,217.887 Z M67.3455,221 L67.3455,213.311 L68.6435,213.311 L68.6435,216.644 L72.4605,216.644 L72.4605,213.311 L73.7585,213.311 L73.7585,221 L72.4605,221 L72.4605,217.854 L68.6435,217.854 L68.6435,221 L67.3455,221 Z M79.4455,214.312 C78.6828295,214.312 78.039336,214.583331 77.515,215.126 C76.990664,215.668669 76.7285,216.326829 76.7285,217.1005 C76.7285,217.874171 76.990664,218.532331 77.515,219.075 C78.039336,219.617669 78.6828295,219.889 79.4455,219.889 C80.2081705,219.889 80.851664,219.617669 81.376,219.075 C81.900336,218.532331 82.1625,217.874171 82.1625,217.1005 C82.1625,216.326829 81.900336,215.668669 81.376,215.126 C80.851664,214.583331 80.2081705,214.312 79.4455,214.312 L79.4455,214.312 Z M79.4455,221.077 C78.3014943,221.077 77.3408372,220.697504 76.5635,219.9385 C75.7861628,219.179496 75.3975,218.233506 75.3975,217.1005 C75.3975,215.967494 75.7861628,215.021504 76.5635,214.2625 C77.3408372,213.503496 78.3014943,213.124 79.4455,213.124 C80.5895057,213.124 81.5501628,213.503496 82.3275,214.2625 C83.1048372,215.021504 83.4935,215.967494 83.4935,217.1005 C83.4935,218.233506 83.1048372,219.179496 82.3275,219.9385 C81.5501628,220.697504 80.5895057,221.077 79.4455,221.077 L79.4455,221.077 Z M90.8965,213.311 L92.1945,213.311 L92.1945,221 L90.7865,221 L86.4305,215.39 L86.4305,221 L85.1325,221 L85.1325,213.311 L86.4305,213.311 L90.8965,219.053 L90.8965,213.311 Z M97.8815,214.312 C97.1188295,214.312 96.475336,214.583331 95.951,215.126 C95.426664,215.668669 95.1645,216.326829 95.1645,217.1005 C95.1645,217.874171 95.426664,218.532331 95.951,219.075 C96.475336,219.617669 97.1188295,219.889 97.8815,219.889 C98.6441705,219.889 99.287664,219.617669 99.812,219.075 C100.336336,218.532331 100.5985,217.874171 100.5985,217.1005 C100.5985,216.326829 100.336336,215.668669 99.812,215.126 C99.287664,214.583331 98.6441705,214.312 97.8815,214.312 L97.8815,214.312 Z M97.8815,221.077 C96.7374943,221.077 95.7768372,220.697504 94.9995,219.9385 C94.2221628,219.179496 93.8335,218.233506 93.8335,217.1005 C93.8335,215.967494 94.2221628,215.021504 94.9995,214.2625 C95.7768372,213.503496 96.7374943,213.124 97.8815,213.124 C99.0255057,213.124 99.9861628,213.503496 100.7635,214.2625 C101.540837,215.021504 101.9295,215.967494 101.9295,217.1005 C101.9295,218.233506 101.540837,219.179496 100.7635,219.9385 C99.9861628,220.697504 99.0255057,221.077 97.8815,221.077 L97.8815,221.077 Z M109.7065,215.808 C109.7065,217.076673 109.152839,217.875998 108.0455,218.206 L110.0585,221 L108.4085,221 L106.5715,218.415 L104.8665,218.415 L104.8665,221 L103.5685,221 L103.5685,213.311 L106.4285,213.311 C107.601839,213.311 108.441497,213.508998 108.9475,213.905 C109.453503,214.301002 109.7065,214.935329 109.7065,215.808 L109.7065,215.808 Z M107.9795,216.897 C108.243501,216.669666 108.3755,216.304836 108.3755,215.8025 C108.3755,215.300164 108.239835,214.955501 107.9685,214.7685 C107.697165,214.581499 107.21317,214.488 106.5165,214.488 L104.8665,214.488 L104.8665,217.238 L106.4835,217.238 C107.216837,217.238 107.715499,217.124334 107.9795,216.897 L107.9795,216.897 Z M112.6655,219.251 L111.8955,221 L110.5095,221 L113.8975,213.311 L115.2835,213.311 L118.6715,221 L117.2855,221 L116.5155,219.251 L112.6655,219.251 Z M115.9875,218.052 L114.5905,214.884 L113.1935,218.052 L115.9875,218.052 Z M123.1045,221 L119.7385,221 L119.7385,213.311 L122.7305,213.311 C123.251169,213.311 123.700331,213.373333 124.078,213.498 C124.455669,213.622667 124.736166,213.791332 124.9195,214.004 C125.271502,214.400002 125.4475,214.847331 125.4475,215.346 C125.4475,215.947336 125.256835,216.394665 124.8755,216.688 C124.736166,216.790667 124.640834,216.854833 124.5895,216.8805 C124.538166,216.906167 124.446501,216.948333 124.3145,217.007 C124.791169,217.109667 125.170665,217.324165 125.453,217.6505 C125.735335,217.976835 125.8765,218.381998 125.8765,218.866 C125.8765,219.401336 125.693169,219.874331 125.3265,220.285 C124.893831,220.761669 124.153172,221 123.1045,221 L123.1045,221 Z M121.0365,216.501 L122.6865,216.501 C123.625171,216.501 124.0945,216.182003 124.0945,215.544 C124.0945,215.177331 123.980834,214.913334 123.7535,214.752 C123.526166,214.590666 123.174169,214.51 122.6975,214.51 L121.0365,214.51 L121.0365,216.501 Z M121.0365,219.801 L123.0715,219.801 C123.548169,219.801 123.912999,219.725834 124.166,219.5755 C124.419001,219.425166 124.5455,219.141002 124.5455,218.723 C124.5455,218.040997 123.999172,217.7 122.9065,217.7 L121.0365,217.7 L121.0365,219.801 Z M127.5045,221 L127.5045,213.311 L128.8025,213.311 L128.8025,219.768 L132.3115,219.768 L132.3115,221 L127.5045,221 Z M139.1315,213.311 L139.1315,214.532 L135.0285,214.532 L135.0285,216.567 L138.7135,216.567 L138.7135,217.722 L135.0285,217.722 L135.0285,219.779 L139.2635,219.779 L139.2635,221 L133.7305,221 L133.7305,213.311 L139.1315,213.311 Z M61.0425,235 L59.7445,235 L59.7445,227.311 L61.7685,227.311 L64.0895,232.14 L66.4105,227.311 L68.4235,227.311 L68.4235,235 L67.1255,235 L67.1255,228.994 L64.4415,234.329 L63.7155,234.329 L61.0425,228.994 L61.0425,235 Z M75.9585,227.311 L75.9585,228.532 L71.8555,228.532 L71.8555,230.567 L75.5405,230.567 L75.5405,231.722 L71.8555,231.722 L71.8555,233.779 L76.0905,233.779 L76.0905,235 L70.5575,235 L70.5575,227.311 L75.9585,227.311 Z M83.5155,227.311 L84.8135,227.311 L84.8135,235 L83.4055,235 L79.0495,229.39 L79.0495,235 L77.7515,235 L77.7515,227.311 L79.0495,227.311 L83.5155,233.053 L83.5155,227.311 Z M89.8515,228.499 L89.8515,235 L88.5535,235 L88.5535,228.499 L86.2215,228.499 L86.2215,227.311 L92.1835,227.311 L92.1835,228.499 L89.8515,228.499 Z M93.5915,227.311 L94.8895,227.311 L94.8895,235 L93.5915,235 L93.5915,227.311 Z M100.5765,228.312 C99.8138295,228.312 99.170336,228.583331 98.646,229.126 C98.121664,229.668669 97.8595,230.326829 97.8595,231.1005 C97.8595,231.874171 98.121664,232.532331 98.646,233.075 C99.170336,233.617669 99.8138295,233.889 100.5765,233.889 C101.33917,233.889 101.982664,233.617669 102.507,233.075 C103.031336,232.532331 103.2935,231.874171 103.2935,231.1005 C103.2935,230.326829 103.031336,229.668669 102.507,229.126 C101.982664,228.583331 101.33917,228.312 100.5765,228.312 L100.5765,228.312 Z M100.5765,235.077 C99.4324943,235.077 98.4718372,234.697504 97.6945,233.9385 C96.9171628,233.179496 96.5285,232.233506 96.5285,231.1005 C96.5285,229.967494 96.9171628,229.021504 97.6945,228.2625 C98.4718372,227.503496 99.4324943,227.124 100.5765,227.124 C101.720506,227.124 102.681163,227.503496 103.4585,228.2625 C104.235837,229.021504 104.6245,229.967494 104.6245,231.1005 C104.6245,232.233506 104.235837,233.179496 103.4585,233.9385 C102.681163,234.697504 101.720506,235.077 100.5765,235.077 L100.5765,235.077 Z M112.0275,227.311 L113.3255,227.311 L113.3255,235 L111.9175,235 L107.5615,229.39 L107.5615,235 L106.2635,235 L106.2635,227.311 L107.5615,227.311 L112.0275,233.053 L112.0275,227.311 Z M116.8565,228.554 C116.614499,228.708001 116.4935,228.940832 116.4935,229.2525 C116.4935,229.564168 116.614499,229.802499 116.8565,229.9675 C117.098501,230.132501 117.613663,230.310332 118.402,230.501 C119.190337,230.691668 119.784331,230.959332 120.184,231.304 C120.583669,231.648668 120.7835,232.156497 120.7835,232.8275 C120.7835,233.498503 120.530503,234.042998 120.0245,234.461 C119.518497,234.879002 118.854837,235.088 118.0335,235.088 C116.830827,235.088 115.763838,234.673671 114.8325,233.845 L115.6465,232.866 C116.423837,233.54067 117.230496,233.878 118.0665,233.878 C118.484502,233.878 118.816332,233.788168 119.062,233.6085 C119.307668,233.428832 119.4305,233.190501 119.4305,232.8935 C119.4305,232.596499 119.315001,232.365501 119.084,232.2005 C118.852999,232.035499 118.455169,231.885167 117.8905,231.7495 C117.325831,231.613833 116.896835,231.489167 116.6035,231.3755 C116.310165,231.261833 116.049834,231.113334 115.8225,230.93 C115.367831,230.585332 115.1405,230.057337 115.1405,229.346 C115.1405,228.634663 115.398997,228.086502 115.916,227.7015 C116.433003,227.316498 117.07283,227.124 117.8355,227.124 C118.326836,227.124 118.814498,227.204666 119.2985,227.366 C119.782502,227.527334 120.200498,227.754665 120.5525,228.048 L119.8595,229.027 C119.632166,228.821666 119.324169,228.653001 118.9355,228.521 C118.546831,228.388999 118.163669,228.323 117.786,228.323 C117.408331,228.323 117.098501,228.399999 116.8565,228.554 L116.8565,228.554 Z" id="+-04-HONORABLE-MENTI-Copy" fill="#5D6572"></path>
                <g id="Group-Copy-6" transform="translate(26.000000, 72.000000)" fill="#67E3C2">
                    <path d="M76.7440755,11.5886452 L71.6318491,11.5886452 L70.4036,15.4018065 L67.6735396,15.4018065 L72.8049811,0.528516129 L75.5724604,0.528516129 L80.7059245,15.4018065 L77.9733358,15.4018065 L76.7440755,11.5886452 L76.7440755,11.5886452 Z M74.1773434,3.10606452 C74.1773434,3.10606452 73.8486642,4.57341935 73.5624604,5.40954839 L72.2704981,9.38787097 L76.0857057,9.38787097 L74.7917208,5.40954839 C74.5242264,4.56980645 74.2183019,3.10606452 74.2183019,3.10606452 L74.1773434,3.10606452 L74.1773434,3.10606452 Z" id="Shape"></path>
                    <path d="M84.6252981,0.531612903 L89.3238943,0.531612903 C90.9035774,0.531612903 91.6221208,0.655483871 92.2562189,0.952258065 C93.7150491,1.61909677 94.6378792,3.04722581 94.6378792,5.01522581 C94.6378792,6.79587097 93.7145434,8.448 92.1748075,9.08180645 L92.1748075,9.12412903 C92.1748075,9.12412903 92.3796,9.3316129 92.6688377,9.85806452 L95.6653811,15.4069677 L92.7108075,15.4069677 L89.8169132,9.85703226 L87.2699019,9.85703226 L87.2699019,15.4054194 L84.6237811,15.4054194 L84.6237811,0.529548387 L84.6258038,0.529548387 L84.6258038,0.531612903 L84.6252981,0.531612903 L84.6252981,0.531612903 Z M89.6510566,7.50606452 C91.0664,7.50606452 91.9482717,6.64722581 91.9482717,5.16025806 C91.9482717,3.73677419 91.3546264,2.85729032 89.2819245,2.85729032 L87.2699019,2.85729032 L87.2699019,7.50812903 L89.6510566,7.50606452 L89.6510566,7.50606452 L89.6510566,7.50606452 Z" id="Shape"></path>
                    <path d="M100.18194,0.531612903 L105.149547,0.531612903 C109.643351,0.531612903 112.576687,3.25419355 112.576687,7.94425806 C112.576687,12.6410323 109.644362,15.4007742 105.149547,15.4007742 L100.18194,15.4007742 L100.18194,0.531612903 L100.18194,0.531612903 Z M105.005434,13.0766452 C107.961525,13.0766452 109.845615,11.2975484 109.845615,7.94425806 C109.845615,4.63793548 107.915004,2.85574194 105.005434,2.85574194 L102.828566,2.85574194 L102.828566,13.0771613 L105.005434,13.0771613 L105.005434,13.0766452 L105.005434,13.0766452 Z" id="Shape"></path>
                    <path d="M117.320792,11.5886452 C117.320792,11.5886452 118.900981,13.1602581 120.952445,13.1602581 C122.060347,13.1602581 123.068128,12.576 123.068128,11.3610323 C123.068128,8.69729032 116.191147,9.15716129 116.191147,4.59354839 C116.191147,2.12025806 118.284075,0.278709677 121.074815,0.278709677 C123.949494,0.278709677 125.425517,1.87045161 125.425517,1.87045161 L124.275645,4.07122581 C124.275645,4.07122581 122.876483,2.77316129 121.050543,2.77316129 C119.823306,2.77316129 118.854966,3.50658065 118.854966,4.55380645 C118.854966,7.19483871 125.707675,6.54348387 125.707675,11.3011613 C125.707675,13.6676129 123.944438,15.6567742 120.90643,15.6567742 C117.665147,15.6567742 115.880166,13.6273548 115.880166,13.6273548 L117.320792,11.5886452 L117.320792,11.5886452 Z" id="Shape"></path>
                    <path d="M46.8777509,0.531612903 L44.4758642,10.820129 C44.2923094,11.6572903 44.2311245,12.3891613 44.2311245,12.3891613 L44.1891547,12.3891613 C44.167917,12.3891613 44.1471849,11.6769032 43.922166,10.820129 L41.3367245,0.531612903 L39.0390038,0.531612903 L36.4131094,10.820129 C36.1865736,11.6748387 36.1673585,12.3891613 36.1461208,12.3891613 L36.1051623,12.3891613 C36.1051623,12.3891613 36.0409434,11.6562581 35.859917,10.820129 L34.140166,3.1163871 L32.8476981,8.7323871 L34.4830038,15.4018065 L37.5407321,15.4018065 L39.7777736,6.60593548 C40.0235245,5.64180645 40.147917,4.65806452 40.147917,4.65806452 L40.1868528,4.65806452 C40.1868528,4.65806452 40.3097283,5.64232258 40.5575019,6.60593548 L42.7970717,15.4018065 L45.8527774,15.4018065 L49.6113509,0.528516129 L46.8777509,0.531612903 L46.8777509,0.531612903 L46.8777509,0.531612903 Z" id="Shape"></path>
                    <path d="M63.3177811,0.531612903 L60.914883,10.820129 C60.731834,11.6572903 60.6701434,12.3891613 60.6701434,12.3891613 L60.6271623,12.3891613 C60.6084528,12.3891613 60.5887321,11.6769032 60.3632075,10.820129 L57.7752377,0.531612903 L55.479034,0.531612903 L52.852634,10.820129 C52.6250868,11.6748387 52.606883,12.3891613 52.5856453,12.3891613 L52.5436755,12.3891613 C52.5436755,12.3891613 52.4819849,11.6562581 52.2984302,10.820129 L50.5680604,3.08077419 L49.2755925,8.69729032 L50.9235396,15.4033548 L53.9797509,15.4033548 L56.2157811,6.60696774 C56.4615321,5.64283871 56.5869358,4.6596129 56.5869358,4.6596129 L56.6273887,4.6596129 C56.6273887,4.6596129 56.7507698,5.64335484 56.9970264,6.60696774 L59.2355849,15.4033548 L62.2923019,15.4033548 L66.0503698,0.532129032 L63.3177811,0.532129032 L63.3177811,0.531612903 L63.3177811,0.531612903 Z" id="Shape"></path>
                    <path d="M9.07255849,11.5886452 L3.9613434,11.5886452 L2.73056604,15.4012903 L0,15.4012903 L5.13093585,0.531096774 L7.90246038,0.531096774 L13.0328906,15.4012903 L10.3028302,15.4012903 L9.07255849,11.5886452 L9.07255849,11.5886452 Z M6.50683774,3.10606452 C6.50683774,3.10606452 6.17714717,4.57341935 5.89144906,5.40954839 L4.59796981,9.38787097 L8.4152,9.38787097 L7.11969811,5.41109677 C6.85422642,4.5723871 6.54526792,3.10606452 6.54526792,3.10606452 L6.50683774,3.10606452 L6.50683774,3.10606452 L6.50683774,3.10606452 Z" id="Shape"></path>
                    <path d="M27.4826415,10.8175484 C27.7076604,11.6743226 27.7273811,12.3876129 27.7476075,12.3876129 L27.7890717,12.3876129 C27.7890717,12.3876129 27.8522792,11.652129 28.0348226,10.8175484 L30.4362038,0.528 L33.1662642,0.528 L29.4092075,15.4012903 L26.3529962,15.4012903 L24.116966,6.6043871 C23.8717208,5.64077419 23.7458113,4.65703226 23.7458113,4.65703226 L23.7053585,4.65703226 C23.7053585,4.65703226 23.5834943,5.64077419 23.3357208,6.6043871 L21.0981736,15.4007742 L18.0399396,15.4007742 L14.3875547,0.531096774 L17.1176151,0.531096774 L19.4168528,10.8196129 C19.6019245,11.6567742 19.6631094,12.3886452 19.6631094,12.3886452 L19.7040679,12.3886452 C19.726317,12.3886452 19.7430038,11.6763871 19.9710566,10.8196129 L22.5979623,0.531096774 L24.8931547,0.531096774 L27.4826415,10.8175484 L27.4826415,10.8175484 Z" id="Shape"></path>
                    <path d="M133.475713,6 C134.87083,6 135.980755,7.15096774 135.980755,8.59974194 C135.980755,10.0572903 134.87083,11.2010323 133.475713,11.2010323 C132.106385,11.2010323 131,10.0583226 131,8.59974194 C131.000506,7.15251613 132.106385,6 133.475713,6 L133.475713,6 Z M133.475713,10.8975484 C134.713064,10.8975484 135.663706,9.89987097 135.663706,8.60180645 C135.663706,7.30941935 134.712053,6.30554839 133.475713,6.30554839 C132.2596,6.30554839 131.315532,7.312 131.315532,8.60180645 C131.315532,9.90193548 132.261117,10.8975484 133.475713,10.8975484 L133.475713,10.8975484 Z M132.662106,7.16645161 L133.595555,7.16645161 C134.071381,7.16645161 134.413208,7.49832258 134.413208,8.00051613 C134.413208,8.42374194 134.1624,8.69574194 133.87114,8.76851613 L133.87114,8.78193548 C133.87114,8.78193548 133.896928,8.81858065 133.965192,8.94141935 L134.520913,10.0397419 L134.175042,10.0397419 L133.577857,8.84025806 L132.971064,8.84025806 L132.971064,10.0397419 L132.666151,10.0397419 L132.662106,7.16645161 L132.662106,7.16645161 L132.662106,7.16645161 Z M133.562181,8.56464516 C133.886309,8.56464516 134.096158,8.352 134.096158,7.99948387 C134.096158,7.65522581 133.886309,7.45083871 133.562181,7.45083871 L132.970558,7.45083871 L132.970558,8.56464516 L133.562181,8.56464516 L133.562181,8.56464516 L133.562181,8.56464516 Z" id="Shape"></path>
                </g>
                <path d="M82.77,173.92 C82.77,175.480008 83.0466639,176.739995 83.6,177.7 C84.1533361,178.660005 85.0166608,179.14 86.19,179.14 C87.3633392,179.14 88.2199973,178.663338 88.76,177.71 C89.3000027,176.756662 89.57,175.493341 89.57,173.92 C89.57,172.346659 89.3000027,171.083338 88.76,170.13 C88.2199973,169.176662 87.3633392,168.7 86.19,168.7 C85.0166608,168.7 84.1533361,169.179995 83.6,170.14 C83.0466639,171.100005 82.77,172.359992 82.77,173.92 L82.77,173.92 Z M80.49,173.92 C80.49,171.719989 80.9633286,169.96334 81.91,168.65 C82.8566714,167.33666 84.2833238,166.68 86.19,166.68 C88.0966762,166.68 89.5233286,167.33666 90.47,168.65 C91.4166714,169.96334 91.89,171.719989 91.89,173.92 C91.89,176.120011 91.4166714,177.87666 90.47,179.19 C89.5233286,180.50334 88.0966762,181.16 86.19,181.16 C84.2833238,181.16 82.8566714,180.50334 81.91,179.19 C80.9633286,177.87666 80.49,176.120011 80.49,173.92 L80.49,173.92 Z M93.65,167.02 L98.73,167.02 L98.73,181 L96.49,181 L96.49,169.12 L93.65,169.12 L93.65,167.02 Z" id="01--copy-3" fill="#5D6572"></path>
            </g>
        </g>
    </g>
</svg>